<?xml version="1.0" encoding="UTF-8"?>
<svg version="1.1" viewBox="0 0 1600 1600" width="1280" height="1280" xmlns="http://www.w3.org/2000/svg">
<path transform="translate(794,58)" d="m0 0h10l16 4 26 11 106 53 23 11 38 19 19 10 36 18 19 10 39 20 19 10 29 15 16 9 14 7 22 12 32 17 23 13 23 12 41 23 24 13 21 12 27 15 26 16 16 12 9 7 8 8 6 10 3 9 1 6v163l-1 571-3 12-6 8-7 6-23 12-32 16-19 10-20 11-14 7-19 10-26 14-19 10-48 24-22 12-30 15-19 10-23 12-18 10-26 14-23 12-17 8-16 8-23 12-100 50-19 10-27 14-22 12-34 17-15 6-14 2-16-3-20-7-20-8-35-17-23-11-29-14-42-21-19-10-24-11-14-5-12-2h-15l-47 2h-52l-109-1-130-3-17-1-10-2-3-3 1-13 5-22 8-22 12-23 8-11 8-9 11-9 19-10 19-7 21-5 5-2-14-10-17-10-52-26-22-12-28-16-21-13-12-11-1-3-1-11v-743l3-18 6-9 8-7 18-10 35-18 19-10 42-21 53-28 35-18 32-17 25-13 18-10 32-17 25-13 22-12 56-28 23-11 33-16 66-33 19-10 76-41 22-11z" fill="#F1A96D"/>
<path transform="translate(1456,422)" d="m0 0h14l8 3 5 5 2 4 1 6v163l-1 571-3 12-6 8-7 6-23 12-32 16-19 10-20 11-14 7-19 10-26 14-19 10-48 24-22 12-30 15-19 10-23 12-18 10-26 14-23 12-17 8-16 8-23 12-100 50-19 10-27 14-22 12-34 17-15 6-14 2-16-3-20-7-20-8-35-17-23-11-29-14-42-21-19-10-24-11-13-5 2-2 75-3 21-1 13-3 1-1v-11l-4-20-7-19-8-16-11-20-9-10-7-7-14-9-17-8-16-5-19-3-9-1-8-4-13-25-6-10v-6l13-10 11-9 13-12 3-1 2-4 16-16 11-14 13-17 15-26 4-10 4-1 7 8 4 5 10 5h12l8-3 4-6 3-11 6-36 5-15 8-16 8-17 7-21 1-4v-19l-4-12-8-9-11-4h-10l-1 5-5 7h-2l-3-6-4 1-3 8-4 7-5 15-8 20-6 11-11 12-10 9-11 5-15 2h-23l-33-4-21-4-19-7-11-6-12-12-6-10-6-16-3-17-1-10v-45l-6-3-5-1h-11l-3 4-4 19-10 30-9 17-7 9-9 10-11 8-7 3-11 2h-35l-24-3-26-5-12-4-15-7-8-6-8-10-6-12-3-9-2-11-1-14-1-30-2-13-3-6-2-2h-7l-2-2v-4h-2l-1-2v-11l1-5h2v-2l6-3 5-1 61-2 36 1 34 3 24 3 19 5 14 6 7 2 11 11 7 9 2 2 12 1 2 1h12l3-2h8l6-2-1 3 12-4 10-4 22-3 1-1h48l4 1v-2h-7l-5-1-15-1h-36l-14 1 7-11 6-7 4-2h3l-1 4-4 10 8-6 8-7 8-1h13l29 3 17 3 16 4 14 7 8 6 9 11 8 3v2l5 1 4 1v-9l1-3v-46l-1-5v-18l3-14 1-21-2-9-4-2-9-7-9-4v-2l-11-2-10-3-1-1-9-2-11-3-13-2-35-6-88-13-44-6-11-2-44-4-7-1h-51l-16 2-9 4-3 3h-3l-3 11h-2l-3 14-1 23-1 11-6 18-2 7-7 23-3 12-31 1v-13l3-24 4-36 2-7 2-27 3-24 2-10 2-13 4-12h2l2-6 4-8 8-9 3-13 7-14 9-13 6-7h2v-2l8-7 14-11 15-9 16-8 18-6 17-5-2-5 10-2 25-3 20-3 3-1 12-1h41l19 2 14 4 20 6 18 7 22 12 16 11 22 18 14 12 12 12 8 6 11 2 11 6 10 9 5 7 6 16 3 7v6l9 3 38 17 25 13 19 12 12 11 7 10 2-9 7-7 16-9 131-67 20-10 19-10 42-22 28-14 5-1v61l-2 59-2 75 4-1 16-7 30-15 23-11 48-24 25-12 22-12 12-5 12-3 16 1-2-135-1-76 8-5 26-13 42-23 16-8 21-10 9-5 10-6 16-8 37-19z" fill="#A16233"/>
<path transform="translate(794,58)" d="m0 0h10l16 4 26 11 106 53 23 11 38 19 19 10 36 18 19 10 39 20 19 10 29 15 16 9 14 7 22 12 32 17 23 13 23 12 41 23 24 13 21 12 27 15 26 16 16 12 9 7 8 8 6 10 1 5-6-5-7-2h-14l-12 5-31 16-19 10-15 8-17 9-32 16-26 14-27 14-11 6 2 132v79h-16l-15 4-19 9-9 5-17 9-21 10-17 9-13 6-23 11-46 23-9 4-4-1 3-112 1-22 1-61-6 1-1-4-6-2-45-23-39-20-13-7-38-19-10-6-30-15-60-31-6-4-7-3-16-8-66-34-16-8-15-8-38-19-19-10-27-14-10-6-23-11-58-29-23-12-16-8-15-8-17-8-20-11-19-9-20-11-6-3-9 1-7 3-3-1 29-15 18-10 32-17 25-13 22-12 56-28 23-11 33-16 66-33 19-10 76-41 22-11z" fill="#FDDDB2"/>
<path transform="translate(432,566)" d="m0 0h41l19 2 14 4 20 6 18 7 22 12 16 11 22 18 14 12 12 12 8 6 11 2 11 6 10 9 5 7 6 16 3 7v6l9 3 38 17 25 13 19 12 12 11 7 10 1-5h1l3 16 4 22v43l-1 29-1 404v248l1 6-13-2-16-5-21-8-28-13-17-8-16-8-35-17-40-20-19-10-24-11-13-5 2-2 75-3 21-1 13-3 1-1v-11l-4-20-7-19-8-16-11-20-9-10-7-7-14-9-17-8-16-5-19-3-9-1-8-4-13-25-6-10v-6l13-10 11-9 13-12 3-1 2-4 16-16 11-14 13-17 15-26 4-10 4-1 7 8 4 5 10 5h12l8-3 4-6 3-11 6-36 5-15 8-16 8-17 7-21 1-4v-19l-4-12-8-9-11-4h-10l-1 5-5 7h-2l-3-6-4 1-3 8-4 7-5 15-8 20-6 11-11 12-10 9-11 5-15 2h-23l-33-4-21-4-19-7-11-6-12-12-6-10-6-16-3-17-1-10v-45l-6-3-5-1h-11l-3 4-4 19-10 30-9 17-7 9-9 10-11 8-7 3-11 2h-35l-24-3-26-5-12-4-15-7-8-6-8-10-6-12-3-9-2-11-1-14-1-30-2-13-3-6-2-2h-7l-2-2v-4h-2l-1-2v-11l1-5h2v-2l6-3 5-1 61-2 36 1 34 3 24 3 19 5 14 6 7 2 11 11 7 9 2 2 12 1 2 1h12l3-2h8l6-2-1 3 12-4 10-4 22-3 1-1h48l4 1v-2h-7l-5-1-15-1h-36l-14 1 7-11 6-7 4-2h3l-1 4-4 10 8-6 8-7 8-1h13l29 3 17 3 16 4 14 7 8 6 9 11 8 3v2l5 1 4 1v-9l1-3v-46l-1-5v-18l3-14 1-21-2-9-4-2-9-7-9-4v-2l-11-2-10-3-1-1-9-2-11-3-13-2-35-6-88-13-44-6-11-2-44-4-7-1h-51l-16 2-9 4-3 3h-3l-3 11h-2l-3 14-1 23-1 11-6 18-2 7-7 23-3 12-31 1v-13l3-24 4-36 2-7 2-27 3-24 2-10 2-13 4-12h2l2-6 4-8 8-9 3-13 7-14 9-13 6-7h2v-2l8-7 14-11 15-9 16-8 18-6 17-5-2-5 10-2 25-3 20-3 3-1z" fill="#BF8551"/>
<path transform="translate(188,903)" d="m0 0h12l3 1 2 5 1 11 12-1 2 2 2 17 1 24 2 9 5 17 8 15 8 9 16 8 11 4 9 3 28 5 18 2h35l13-3 10-5 12-11 9-12 9-17 10-30 4-19 4-5h11l9 3 3 2v45l3 22 4 14 7 14 9 10 7 6 13 6 14 5 28 5 26 3h23l15-2 12-6 10-9 9-10 8-16 8-20 4-13 4-5 2-7 2-2 4 1 2 3v3l5-5 3-7 2-1h8l11 4 7 7 4 8 2 7v19l-5 17-9 21-9 19-5 12-5 27-3 17-4 11-5 4-6 2h-12l-10-5-6-7-5-6h-3l-5 12-16 27-11 14-9 11-9 10-23 23-11 9-10 8-7 5v6l14 25 5 10 7 3 23 3 15 4 15 6 15 8 10 8 12 12 10 17 9 17 9 24 4 20v11l-4 2-11 3-96 4-3 1-12-2h-15l-47 2h-52l-109-1-130-3-17-1-10-2-3-3 1-13 5-22 8-22 12-23 8-11 8-9 11-9 19-10 19-7 21-5 5-2-5-5 7 2 3 2h8l5-4 10-18 5-10 3-5-1-5-5-4-5-2-4-5-5-2-2-3-5-3-6-7-3-5-11-13-14-20-10-16-7-15-9-21-8-22-6-22-2-14-5 1-11 7-6 2h-10l-10-4-5-7-1-10 3-23v-36l-5-27-2-12v-23l4-15 6-11 6-5 4-1v-2z" fill="#FBC6B2"/>
<path transform="translate(128,417)" d="m0 0 12 3 28 14 31 16 23 13 20 11 46 26 22 13 18 10 24 13 32 17 24 12 3 2 6-1 11-3 6-1h33l20 5v1l-14-1h-41l-12 1-16 3-21 3-16 2-4 1 2 4-7 3-24 7-16 7-17 10-12 9-10 9-3 1v2l-5 5-8 10-6 10-4 9-3 13-8 9-7 14h-2l-2 11-2 5-2 16-2 12-2 15-2 27-2 7-4 36-3 24-1 13 7-1h24l1-9 6-19 3-13 3-6 3-12 1-1 1-11 1-23 3-12 1-2h2l2-9 1-2 5-3 4-3 6-2 16-2h51l39 4 19 2 26 4 77 11 52 8 20 4 14 2 8 3 7 1 8 3 14 4v2l5 1 10 6 7 6 2 3 1 12-2 21-2 8v18l1 5v46l-2 12-5-1-4-1v-2l-6-1-5-4-8-10-13-8-13-5-13-3-33-4-10-1h-18l-7 4-7 7-5 2 1-6 4-8-8 4-8 11-3 4 13-1h36l15 1 12 2v2h-52l-3 1-20 3-14 5-5 2h-3l-1-2-4 2h-8l-3 2h-12l-4-1-10-1-9-10-7-8-5-5-8-2-9-4-14-4-8-2-36-4-22-2-41-1-56 2-11 3v2h-2v18h2l2 5h7l5 6 2 7 1 9 1 30 1 17-2-2-1-7-1-24-2-17-1-1-9 1-3-1-1-2-2-14h-15l-6 1v2l-8 5-6 10-4 12-1 5v23l7 39v36l-3 26 2 9 5 5 8 3h10l9-4 10-6 4 1 3 18 7 24 10 26 10 21 3 7 16 24 9 12 9 11 3 5 7 8 4 2 2 3 5 2 4 5 5 2 6 5-1 7-3 3-8 16-7 12-5 4h-8l-8-4-7-3-10-7-29-15-34-17-22-12-28-16-21-13-12-11-1-3-1-11v-743l1-8 9-6z" fill="#BF8551"/>
<path transform="translate(794,58)" d="m0 0h10l16 4 26 11 106 53 23 11 38 19 19 10 36 18 19 10 39 20 19 10 29 15 16 9 14 7 22 12 32 17 23 13 23 12 41 23 24 13 21 12 27 15 26 16 16 12 9 7 8 8 6 10 1 5-6-5-7-2h-14l-12 5-31 16-19 10-15 8-17 9-32 16-26 14-27 14-12 6-19-9-22-12-31-16-22-12-29-15-19-10-34-18-27-14-67-35-19-10-25-13-19-10-36-19-35-18-23-12-22-12-35-18-46-25-19-10-18-10-16-8-18-10-16-8-17-9-23-13-15-8-1-3 4-4 9-5h2l1-3 21-11 23-11 33-17 22-12 28-15 24-13 22-11z" fill="#F2AA6D"/>
<path transform="translate(1252,731)" d="m0 0 16 1 21 8 21 11 32 16 19 9 15 7 14 7 18 10 19 11 9 6 2 3v10l-3 27-4 19-10 43-6 26-4 27-7 27-4 10-9 10-12 9-23 12-24 11-30 15-26 12-29 14-32 16-31 15-5 2h-3l2-10 8-36 6-30 6-28 8-43 9-42 2-11-15-7-16-8-35-18-28-13-14-7-6-4-23-11-17-9-12-5-15-8 1-3 23-10 20-9 30-15 23-11 48-24 25-12 22-12 12-5z" fill="#0098BC"/>
<path transform="translate(432,566)" d="m0 0h41l19 2 14 4 20 6 18 7 22 12 16 11 22 18 14 12 12 12 8 6 11 2 11 6 10 9 5 7 6 16 3 7 3 16 3 9 5 4 6 8 3 8 1 12v32l-4 32-2 29-2 9-3 21-5 32-3 12-8-1-12-3-9-2v-58l-1-5v-18l3-14 1-21-2-9-4-2-9-7-9-4v-2l-11-2-10-3-1-1-9-2-11-3-13-2-35-6-88-13-44-6-11-2-44-4-7-1h-51l-16 2-9 4-3 3h-3l-3 11h-2l-3 14-1 23-1 11-6 18-2 7-7 23-3 12-31 1v-13l3-24 4-36 2-7 2-27 3-24 2-10 2-13 4-12h2l2-6 4-8 8-9 3-13 7-14 9-13 6-7h2v-2l8-7 14-11 15-9 16-8 18-6 17-5-2-5 10-2 25-3 20-3 3-1z" fill="#2F1C10"/>
<path transform="translate(273,871)" d="m0 0 41 1 34 3 24 3 19 5 14 6 7 2 11 11 7 9 2 2 12 1 2 1h12l3-2h8l6-2-1 3 12-4 10-4 22-3 1-1h48l4 1v-2h-7l-5-1-15-1h-36l-14 1 7-11 6-7 4-2h3l-1 4-4 10 8-6 8-7 8-1h13l29 3 17 3 16 4 14 7 8 6 9 11 8 3v2l5 1 4 1v-9l2-3-1 12 12 2 17 4 2 4v25l-2 3h-2v2l-4 2-1 2-8 1-5 5-5 10-1 5h-2l-2 11-4 12-8 20-6 11-11 12-10 9-11 5-15 2h-23l-33-4-21-4-19-7-11-6-12-12-6-10-6-16-3-17-1-10v-45l-6-3-5-1h-11l-3 4-4 19-10 30-9 17-7 9-9 10-11 8-7 3-11 2h-35l-24-3-26-5-12-4-15-7-8-6-8-10-6-12-3-9-2-11-1-14-1-30-2-13-3-6-2-2h-7l-2-2v-4h-2l-1-2v-11l1-5h2v-2l6-3 5-1z" fill="#2E2921"/>
<path transform="translate(1179,944)" d="m0 0h2v8l-8 37-17 81-10 50-10 47-15 73-9 44-1 6v12l4 8 9 8 9 4v2l-4 1-1 3-12 6-8 1v2l-3 1h-10l-4-1v-2h-8l-2-1v-2h-7l-32-16-10-6-7-3-22-11v-2l-7-1-22-11v-2l-6-1v-2l-5-1-36-18v-2l-5-2-3-4v-12l19-95 8-37 4-15 5-20 3-9h2l1-5 5-5 6-5 1-2h3v-2h3v-2l5-3 6-1v-2l14-7 6-1v-2l10-4 4-1v-2l7-1v-2l6-1v-2l11-5h4v-2l6-1v-2l9-4 6-1v-2l19-9 10-4 8-5 10-4 19-10 14-6 5-3 16-8z" fill="#E8AA0A"/>
<path transform="translate(522,1250)" d="m0 0 3 3 14 25 5 10 7 3 23 3 15 4 15 6 15 8 10 8 12 12 10 17 9 17 9 24 4 20v11l-4 2-11 3-96 4-3 1-12-2h-15l-47 2h-52l-109-1-130-3-17-1-10-2-3-3 1-13 5-22 8-22 12-23 8-11 8-9 11-9 19-10 19-7 21-5 6-1v2l13-1 3-1 8-14 10-17 3-4h3l4 10 3 11 3 14 6 12 2 2 8 1 3-4 5 10 8 8 11 8 5 4 2 1v2l4 2 9 7 9 6 9 5 9 4 9-3 10-9 13-10 11-5 16-2 17-3 3-1 2-6 6-17 1-14 2-13 4-11 5-12z" fill="#E9E8EB"/>
<path transform="translate(215,929)" d="m0 0h4l1 2 1 19 1 2 2 17 2 4 2 8 4 11 6 11 8 9 16 8 11 4 9 3 28 5 18 2h35l13-3 10-5 12-11 9-12 9-17 10-30 4-19 4-5h11l9 3 3 2v45l3 22 4 14 7 14 9 10 7 6 13 6 14 5 28 5 26 3h23l15-2 12-6 10-9 9-10 8-16 8-20 4-13 9-12 2 1-3 14-4 16-5 18h-2l-2 6-4 6-8 11-8 7-3 4h-3l-1 3-13 9-10 6-5 6-16 10-9 7-9 9h-2l-2 4-5 5-4 5-6 5h-2l-2 4-5 4-5 5-2 4-6 2-2 4-3 5v6l-4 6-2 5h-2l-3 9-4 6-6 7-6 11-4 8h-2l-2 4-10 10-8 12-5 4-5 6-2 7-9 7-12 5-10 2h-17l-10-1-11-3-11-1-7-3-7-2-5-3-4-1-1-4h2l-2-6-3-5-1-5-1-3-3-1-6-9-7-19-2-8-6-17-2-24-3-13-3-10-8-10-2-5-2-8-5-12-1-3h-2l-7-12-7-10-6-10-7-7-8-10-5-5-5-16-4-4v-2l-3-1-8-12-3-3v-2h-2l-3-7-6-19-3-16-3-17v-7l2-7z" fill="#FCDFCA"/>
<path transform="translate(301,735)" d="m0 0h51l39 4 19 2 26 4 77 11 52 8 20 4 14 2 8 3 7 1 8 3 14 4v2l5 1 10 6 7 6 2 3 1 12-2 21-2 8v18l1 5v46l-2 12-5-1-4-1v-2l-6-1-5-4-8-10-13-8-13-5-13-3-33-4-10-1h-18l-7 4-7 7-5 2 1-6 4-8-8 4-8 11-3 4 13-1h36l15 1 12 2v2h-52l-3 1-20 3-14 5-5 2h-3l-1-2-4 2h-8l-3 2h-12l-4-1-10-1-9-10-7-8-5-5-11-6-6-2v-2l-11-2-15-4-11-2v-2l-11-1-29-4-27-2h-33l-2-1v-4h2v-3l8-7 4-1v-2l13-4h36l25 3 31 5 29 2-1-9-1-5-9-9h-2l3 10-1 4-6-5-6-9-4-4-12-2v-2h-10l-33-2h-13l-18 2-13 4-10 7-6 7-7 16-4 8-1 1h-6l1-8 3-13 6-21 4-13 2-5 1-11 1-23 3-12 1-2h2l2-9 1-2 5-3 4-3 6-2z" fill="#FCDFCA"/>
<path transform="translate(1263,521)" d="m0 0h2l1 3 2 129v79h-16l-15 4-19 9-9 5-17 9-21 10-17 9-13 6-23 11-46 23-9 4-4-1 3-112 1-22 1-62 24-14 26-14 29-15 19-10 28-14 19-10 45-22z" fill="#C8A187"/>
<path transform="translate(482,586)" d="m0 0 5 2v2h2l3 9 15 8 14 8 11 6 21 11 2 3 8 3 21 14 10 8 5 3 15 15v2h2l7 8 8 10 9 14 7 17 2 7v6l-6 6-8 1-6-2v-2l-3-1-6-12-6-9-8-11-3-3v-2h-2l-1-3-2-1-1-3-2-1v-2h-2v-3h-2l-4-4-3-1 3 8 3 5v3h2l2 7-3 4-5-1-7-6v-2l-6-3v-2l-5-2-14-9-11-6-5-1 2 4 4 1 10 9v2h2l6 8 7 9 8 10-1 5h-9l-1 1-10-1-5-2-7-8-6-8-8-12-4-3-2 7-1 2 3 5 5 5 4 7-1 6-1 1-7-1-6-3-3 2-14 1v-2l-6 1v2h-2l-1 3-8-7-6-7-20-20-5-3-1-2-5-3-11-4-13-2-10-3v-2h-7l-10-3h-2v2l14 8 6 4 7 4 15 14 6 7h-3l-19-13-11-6-9-3h-6l-2 2 2 8h-8l-18-2-10-2-13-1-11-2-11-1-19-3-9-3-6-4-5-6v-2h-2l-1-5-1-16-1-6 2-5 10 3 18 3 14 1-1-3-5-4-5-11-3-17 1-1 10 1 16 3 19 1 28-3 1-1-36-1-7-2-2-1 1-4 9-4 26-6 19-3h26l16 2 20 3 19 5 6 2-1-4-4-8 1-7z" fill="#442B16"/>
<path transform="translate(1254,733)" d="m0 0h16l19 7 21 11 32 16 19 9 15 7 14 7 18 10 19 11 9 6 2 3v10l-3 27-4 19-10 43-6 26-4 27-7 27-4 10-9 10-12 9-23 12-24 11-30 15-26 12-29 14-32 16-31 15-5 2h-3l2-10 8-36 6-30 6-28 8-43 9-42 2-6 4-5 4-14h2v2h3v2h7l4 2h10l5 3 9 2 3 3 6 3 1 2 9 2 1 2 7 1 7 3 9 2 13 7 6 2 14 7 9 3 12 5 8 5 4 1h21l5-2 7-14 5-24 4-11 4-19 2-5 4-22 4-13 2-11v-23l-3-7-26-14-19-10-16-8-12-5-16-8-21-10-9-6-4-2-3-3-12-5-22-10-5-3h-7z" fill="#017695"/>
<path transform="translate(963,1097)" d="m0 0 2 3v4l5 1 2 2v5h4l3-4 4 5 2 3 8 4 1 3h2l4 4v2l11 3 3 3 17 6 9 1 13 3 13 5 8 1 1 1 9 2h12l4 3 5 2 5 4 8 15 3 6v11l-1 14-1 4h-2l1 5-3 20-3 16-5 25-3 12-1 9 2 8 4 9 4 4-1 3-5 1-2-1v-2l-9-3-13-5-8-5-16-8-8-5v-2l-12-3-15-7v-2l-6-2v-2l-5-2-7-4-15-5-5-3v-2l-9-3-15-6-28-14-6-4-3-5-1-9-1-3 15-75 5-23h1v6l1-1 2-5 4-8 3-1v-3l3-2 2-6z" fill="#DA9508"/>
<path transform="translate(310,1275)" d="m0 0 4 1 4 6 3 4 5 13 8 14 7 9 9 11 3 3v7l-8 8-17 12-9 5-12 6-13 4v5l9 2 19-1 17-4 12-5 8-5 5-1 19 6 6 4-1 35v13l3 3h-67l-130-3-17-1-10-2-3-3 1-13 5-22 8-22 12-23 8-11 8-9 11-9 19-10 19-7 17-4 9 2h12l6-3 5-5 4-8z" fill="#E9E8EC"/>
<path transform="translate(1219,745)" d="m0 0 17 6 7 6 5 8 1 3v9l-4 18-4 23-2 10-8 42-1 1-2 13-2 10-3 11-2 12-3 8-20-9-16-8-31-16-28-13-14-7-6-4-23-11-17-9-12-5-15-8 1-3 23-10 20-9 30-15 23-11 48-24 25-12 9-5z" fill="#164758"/>
<path transform="translate(271,885)" d="m0 0h42l28 3 31 6 15 5 7 2v2l5 1v2l5 2 7 8 2 4 1 13-5 21-8 23-8 16-10 13-9 7-11 4-9 1h-14l-23-2-31-5-17-5-10-6-8-9-7-14-4-20v-42l3-12 3-5 7-7 8-4z" fill="#FCDEC9"/>
<path transform="translate(509,916)" d="m0 0h26l34 3 18 3 23 5 12 5 10 6 6 5 4 7 2 4v13l-5 23-7 22-10 19-9 10-5 4-13 5h-26l-24-2-28-6-16-5-9-6-4-5-6-10-5-16-3-17v-36l4-14 4-6 8-6 13-4z" fill="#FBDEC9"/>
<path transform="translate(1140,1143)" d="m0 0 7 3 17 10 27 12 21 10 32 16 25 13 15 8 23 11 12 6 1 2-16 8-23 11-32 16-43 20-21 8-11 5-34 17-5 5h-2v-2l-9-3-11-10-3-7v-12l5-26 19-91z" fill="#C47513"/>
<path transform="translate(1252,731)" d="m0 0 16 1v1l-9 1 7 1 14 7 20 9 6 3v2l6 2 9 6 44 21 12 5 22 12 14 7 17 10 3 7v23l-4 19-3 10-4 20-3 13-5 17-3 12-4 17-4 7-3 5-5 2h-21l-8-3-8-5-8-3-13-5-11-6-7-2-13-7-11-2-3-2-7-1-1-3-9-1-1-3-6-2-3-2v-2l-9-1-5-3h-10l-4-2-7-1v-2h-3v-2h-2l1-8 8-36 5-24 2-7 8-4 9 5 8 4v2l6 2 7 5 10 3 12 7 4 1 13 5 16 7 22 9 6 4 6 3 7 3 8 4 13 2 8-1 7-2h2l2-6 5-9 3-14 5-12v-15l-3-11-5-5-6-4-18-4-15-9-9-5-9-6-13-3-13-8-5-4-11-5-13-6-15-7-10-5-14-16v-2l-9-1h-8l-15 4h-9l3-3h2v-2l11-4z" fill="#008BAD"/>
<path transform="translate(396,678)" d="m0 0 6 1 6 2 7 1v2l10 2 10 1 8 3 7 3 5 3v2l5 2 18 18v2l3 1 6 10 5 4 4 5v2l22 4 2 1 17 1 12 1 5-2 11 4 12 2 5 2 13 1 3-1-2-3 8 2 7 1 3 1v3l5 1 10 5 4 4 13 6 18 9 8 1 2 5v6h3l3-3-1 5 6 1v-2l8-6 5-10 3-7 3 1v23l-3 26-2 29-2 9-3 21-5 32-3 12-8-1-12-3-9-2v-58l-1-5v-18l3-14 1-21-2-9-4-2-9-7-9-4v-2l-11-2-10-3-1-1-9-2-11-3-13-2-35-6-88-13-44-6-11-2-44-4-7-1h-51l-16 2-9 4-3 3h-3l-3 11h-2l-3 14-1 23-1 11-6 18-2 7-7 23-3 12-31 1v-13l3-24 4-36 2-7 2-21 3-10 3-2 5 6 1 6 4 2-2 2v5h2l2-5 4-1 2 1 5-3 4-14-1-5 2-5h5l5-5 8-5 10-3 15-3 7-2 14 1 6-2h14l3 1 21 1 7 1h14l10-1v-2h-3v-2h-3v-2h-2v-2l2-1h11l18 5 13 5 16 7 5 1 2-1-1-8h-2l-4-5-3-2v-2l-4-1-11-11-10-8-8-4-13-8-3-2z" fill="#2B160D"/>
<path transform="translate(699,992)" d="m0 0 7 1 3 2v2h4v19l-5 17-9 21-9 19-5 12-5 27-3 17-4 11-5 4-6 2h-12l-10-5-6-7-5-6h-3l-5 12-16 27-11 14-9 11-9 10-23 23-11 9-10 8-7 5-2 4-2 2-6 15-3 12-1 10-1 11-7 20-5 5-17 3-17 2v-2l8-7 10-9 4-10 1-14v-16l-4-2 1-3v-1l-16 4-11 3-12 1 2-2 15-6 4-3h2l2-4 7-4 4-6 11-7 4-8 5-4 8-11 8-12 3-7 7-8 4-8 5-4 7-11 8-10 5-6h2l2-5 4-5 5-5 5-6h2l2-4 17-17 10-9 11-12 4-6 13-12 8-6 8-11 2-2 2 1-1 13-5 15-2 10h-2v5l2 1 16-14 7-11 3-7-2-7v-7l-6-8 2-10 7-17 6-10 8-8 10-6z" fill="#FBC0AF"/>
<path transform="translate(312,619)" d="m0 0 10 1 16 3 19 1 30-3v2l-21 3-17 1-7 3 2 4 7 3 1 2 9 2 7 2 21 5 44 7 25 6 17 7 19 10 5 3 6 2 1-7 2-1 2 1v2l5 2 1 3 4 2 10 11v2h2l7 8 1 4 3 1v2l6 2 4 3 5 1 1-6-3-8-12-13-3-4 4 2 8 7 1 3h2l6 8 7 9 8 10-1 5h-9l-1 1-10-1-5-2-7-8-6-8-8-12-4-3-2 7-1 2 3 5 5 5 4 7-1 6-1 1-7-1-6-3-3 2-14 1v-2l-6 1v2h-2l-1 3-8-7-6-7-20-20-5-3-1-2-5-3-11-4-13-2-10-3v-2h-7l-10-3h-2v2l14 8 6 4 7 4 15 14 6 7h-3l-19-13-11-6-9-3h-6l-2 2 2 8h-8l-18-2-10-2-13-1-11-2-11-1-19-3-9-3-6-4-5-6v-2h-2l-1-5-1-16-1-6 2-5 10 3 18 3 14 1-1-3-5-4-5-11-3-17z" fill="#442B17"/>
<path transform="translate(1179,944)" d="m0 0h2v8l-8 37-17 81-10 50-10 47-15 73-9 44-1 6v12l4 8 9 8 9 4v2l-4 1-1 3-12 6-8 1v2l-3 1h-10l-4-1v-2h-8l-2-1v-2h-7l-32-16-10-6-7-3-22-11v-2l-7-1-22-11v-2l-6-1v-2l-5-1-36-18v-2l-5-2-3-4v-12l3-15 3-4v7l3 7 3 3 6 4 16 7 11 6 16 6 6 3v2l5 2 17 6 8 5 2 1v2l6 2v2l9 3 9 4 9 3v2l5 2 10 6 9 4 8 5 16 6 6 3v2l7-1v-4l-4-2-4-9-2-9 3-17 5-22h2l2-14 7-29 3-14 11-50v-17l5-22 2-21 3-16 1-13 1-7v-6l-4-12-7-6-6-2-13 1-3 1-2 2-8-3v2h-6l-1-4-5-2-4-3-1 4h-3v-8l-6 3-1-6h-6-2l-7 1-1-2h-2v-2l-12 2-13 4h-2l-1-3 4-4h2v-2l11-5h4v-2l6-1v-2l9-4 6-1v-2l19-9 10-4 8-5 10-4 19-10 14-6 5-3 16-8z" fill="#F1B512"/>
<path transform="translate(1254,733)" d="m0 0h16l19 7 21 11 32 16 19 9 15 7 14 7 18 10 19 11 9 6 2 3v10l-3 27-4 19-10 43-6 26-4 27-7 27-4 10-9 10-12 9-23 12-24 11-30 15-26 12-29 14-32 16-31 15-5 2h-3l2-10 8-36 6-30 6-28 8-43 9-42 2-6 2-1-1 12-1 2v7l1 7v8l-1 2v12l1 4v11l2 4-1 3h2v4h5v3l11 2 5 4 8-1v4l5 5 5 4v2l5-2 8 3 10-1h5l1 4 5 2v-2l7 1 2 1h11l7 1h15l2-1 4 1 12-4 11-5 14-7 5-5h2v-2l8-7 5-6 5-25 4-17 5-25 6-26 2-8 5-25 4-13 2-11v-23l-3-7-26-14-19-10-16-8-12-5-16-8-21-10-9-6-4-2-3-3-12-5-22-10-5-3h-7z" fill="#137288"/>
<path transform="translate(522,1250)" d="m0 0 3 3 10 18-6 10-4 4-6 14-4 20-3 9-6 8-5 6-6 1h-2l2 5 13 10 19 11 15 6 7 2v6l-5 3-5 1-28-6-13-5-15-9-7-3-9 1-12 5-23 12-7 5 1 5 5 1 5 4 4 7 1 9-4 10-3 3-4 2-13 1-9-2v-2h-2l-3-9v-18l-3 1-1 4v10l-1 13-2 4h-5l-4-3v-17l1-31-7-4-17-5-7 2-10 6-13 4-14 3-17 1-9-2-1-1v-5l8-3 13-5 11-7 9-5 13-10 5-5v-9l-3-1-9-11-7-9-9-16-5-12-5-7v-2l-5 1-5 9-8 7-3 1h-12l-6-2 1-2 6-1v2l13-1 3-1 8-14 10-17 3-4h3l4 10 3 11 3 14 6 12 2 2 8 1 3-4 5 10 8 8 11 8 5 4 2 1v2l4 2 9 7 9 6 9 5 9 4 9-3 10-9 13-10 11-5 16-2 17-3 3-1 2-6 6-17 1-14 2-13 4-11 5-12z" fill="#DDDBDC"/>
<path transform="translate(1171,775)" d="m0 0 1 2 5-2 1 2-1 2 5-1 6 2 1 1 9 1 3 5 1 4 5 5-5 10-5 5-1 3h-2v2l-10 8-10 7h-2l-2 5-8 5-10 5-17 4-8 2-3 1v6l1 5-4 2-1-1h-12l-1 1h-6l-3-2-10-3-16-8-10-6-13-5-13-7 1-3 23-10 20-9 30-15 17-8h7v-2l8-4 14-3 8-3 4-2z" fill="#024B64"/>
<path transform="translate(421,618)" d="m0 0h40l21 4 21 7 16 8 9 7 6 4v2l4 2 4 4-2 5-3 2h-7l-4 6-7-1-5-2 5 5 8 7 15 11 11 11 6 9 1 7-2 4-7-2-3-3-5-2-3-3-3-5-5-5v-2h-2l-9-11-5-4-4-4-2-1v-2h-3l-1 5-1 3-9-4-17-9-16-7-13-4-23-5-44-7-21-5-10-4-9-5-2-4 5-3 7-1 21-2 38-5z" fill="#613E26"/>
<path transform="translate(210,995)" d="m0 0 4 2 4 15 7 11 10 18 6 17 5 7v5l-3 5v6l4 11h7l5 5 3 6 3 9 7 12v2l4 2 11 12 1 1 1 10 4 6 1 15 3 13 4 9 1 17 1 10-3 1-6-4-5-6-2-1v-2h-2l-4-4v-2l-3-1-15-15h-3l-14-22-7-15-9-21-8-22-6-22-1-15-3-3-3-9-1-13-5 1-4 2-8-1-4-3 11 1v-2h3v-5l-6-11-5-7-1-5 4 4 4 6 6 10 5 5v-10l-1-7v-20z" fill="#FBC0AF"/>
<path transform="translate(521,907)" d="m0 0h19l15 1 7 1 4 1 1 3-1 2-31-2h-27v2l-14 3-9 5-4 4-2 6-4 14v36l4 20 4 13 8 13 8 6 14 5 22 5 10 2 24 2h26l13-5 10-9 7-11 8-16 2-3h2l1-3h2l3-14 2-34 2-1 7 6 1 6 7-2 2-5 4-1h9l2-1v-4l4-1 3 3v5h-2v2l-4 2-1 2-8 1-5 5-5 10-1 5h-2l-2 11-4 12-8 20-6 11-11 12-10 9-11 5-15 2h-23l-33-4-21-4-19-7-11-6-12-12-6-10-6-16-3-17-1-10v-45l-2-1 1-4 8 4h4v-2h2l2-4 8-12h2v-2l12-6 11-2z" fill="#090705"/>
<path transform="translate(326,1123)" d="m0 0 4 1 8 4 4 6 5 4 10 6 23 7 22 4 9 1 2 1 16 1 2 1h36l1-1 10-1 9-6 3-5 1-5-2-1 15-4 5-2h3l-2 7-6 8-4 7-10 13-8 8-9 7-8 6-7 4-2 3 5-1 18-10 8-6 6-3 3-6 3-2v5l-12 14-9 7-11 6-16 6-9 1-3 1h-33l-13-3-7-3-11-5-7-3-1-4-9-3v-2h-2l-1-3 4-1 7 1 1-2 6 1 7 2 27 3 19 2h23l8-2-4-1v-2h-10l-9-1h-8l-3-1h-9l-19-2-5-2-16-2h-11l-10-5-6-7-2-5-1-3-3-1-2-9h-2l-4-8-7-12z" fill="#FCC7B3"/>
<path transform="translate(511,880)" d="m0 0h3l-1 4-4 10 8-6 8-7 8-1h13l29 3 17 3 16 4 14 7 8 6 9 11 8 3v2l5 1 4 1v-9l2-3-1 12 12 2 17 4 2 4v25l-2 2-2-5-2-1-2 2v3l-3 1h-13v5l-3 2h-6l-1-6-3-1-4-4h-1l-2 34-3 12-4 5h-2l-1 3-1-2 7-24 3-15v-13l-4-8-4-5-9-6-12-5-9-3-22-5-23-3-25-2h-26l-13 3-9 4-7 5 2-4 6-5 9-4 4-1h7v-2l11-1h16l29 2 2 1-1-4-10-2-15-1h-19l-26 1-9 2 1-2 9-3 22-3 1-1h48l4 1v-2h-7l-5-1-15-1h-36l-14 1 7-11 6-7z" fill="#2E2922"/>
<path transform="translate(236,912)" d="m0 0h2v33l1 9 2 3 4 20 7 14 8 9 12 6 18 5 35 5 15 1h14l13-2 10-5 7-6 9-13 8-16 9-28 3-14h2l-1-12 2 1v3h2l2 4-1 4 9 3-1 3h2v9l-7 24-5 14-9 17-7 9-9 10-11 8-7 3-11 2h-35l-24-3-26-5-12-4-15-7-8-6-8-10-6-12-3-9v-22l1-15 4-20z" fill="#0A0706"/>
<path transform="translate(1203,1006)" d="m0 0h3v8l-1 7v12l5 10 4 3v3l5-2 5 3v2l3 1h10l32 6 6 2 5 2h7l15-4 42-21 10-4 12-5 10-5 13-6v3l-10 7-23 12-24 11-30 15-26 12-29 14-32 16-31 15-5 2h-3l2-10 8-36 6-30 4-18 3-7 3-12z" fill="#024C64"/>
<path transform="translate(699,992)" d="m0 0 7 1 3 2v2h4v19l-5 17-9 21-9 19-5 12-5 27-3 17-4 11-5 4-6 2h-12l-10-5-6-7-5-6-2-1v-3h2v-2h2l2-6h2l2-9 7-20 2-3-1 9h-2v5l2 1 16-14 7-11 3-7-2-7v-7l-6-8 2-10 7-17 6-10 8-8 10-6z" fill="#FCC6B2"/>
<path transform="translate(1062,656)" d="m0 0h2v31l-20 9-23 11-21 9-16 8-23 11-34 15-24 10-8 4-9 4-44 19-15 5h-6v-3l17-11 13-8 21-12 29-16 16-9 32-17 22-12 34-18 42-22z" fill="#613E26"/>
<path transform="translate(924,1219)" d="m0 0 1 4 2 9 4 4 6 4 16 7 11 6 16 6 6 3v2l5 2 17 6 8 5 2 1v2l6 2v2l9 3 9 4 9 3v2l5 2 10 6 9 4 8 5 16 6 6 3v2l7-1v-4l-4-2-4-9-2-9 3-17 2-3-1 12-1 9 2 7h2v-19l2-11 2-1-2 14v12l4 8 9 8 9 4v2l-4 1-1 3-12 6-8 1v2l-3 1h-10l-4-1v-2h-8l-2-1v-2h-7l-32-16-10-6-7-3-22-11v-2l-7-1-22-11v-2l-6-1v-2l-5-1-36-18v-2l-5-2-3-4v-12l3-15z" fill="#E8AA0A"/>
<path transform="translate(1457,458)" d="m0 0 7 1-1 4-11 8-27 18-20 12-27 16-22 13-39 22-10 6-12 6-6 4-14 7-7 5h-2v-31l12-5 44-22 38-20 46-22 16-8 24-10z" fill="#613E26"/>
<path transform="translate(316,904)" d="m0 0h7l1 3h14l1 1 10 2 14 7 8 7 8 11 6 11 1 9h-2l-5-12-6-10v-2h-2l-4-5-5-3 6 12 1 4v7l-5 15-8 9-6 3h-22l-16-4-5-4-4-7v-2h-2l-1-12h-2v-3h2l1-9 4-9 5-6 10-7h-8l-19 5-19 10-10 8h-2l1-5 8-8 11-7 5-3 18-5z" fill="#090605"/>
<path transform="translate(304,727)" d="m0 0h47l59 6 24 2 8 2 24 4 18 1 3 1v2h7l14 3 20 3 11 1 7 1 16 2 14 3 10 1 13 4 11 2 7 3 8 3 5 2 11 4 12 6 5 3v2l4 2 1 6 5 2 2 5 1 12v2h-2l1 9-2 10-1 3v22l2 8v14l-1 12v15l-2 11-1 1h-6l-2-1v-58l-1-5v-18l3-14 1-21-2-9-4-2-9-7-9-4v-2l-11-2-10-3-1-1-9-2-11-3-13-2-35-6-88-13-44-6-11-2-44-4-21-2-54-1 2-4z" fill="#241811"/>
<path transform="translate(381,1048)" d="m0 0 6 2 9 5 3 4v3l9 1 10 2 10 1h15l10-3 14-1 14 3 3 4v3h2l1 13-4 8h-2l-2 4-3 3-14 4-7-1-4-3-12-1-2-1-7 2h-12l-11-6-8-2-2-1h-13l-10-6-8-6-3-6v-9l6-12 6-3z" fill="#FBC6B2"/>
<path transform="translate(424,619)" d="m0 0h43l18 4 18 6 4 2 3 3 7 4 2 5-3 5-4 3h-10l-3-1-4 1 1 6-8 1v4h2v4l-13 2-17-7-24-8-4-3 1-4h2v-5h-2v-2l-16-1-26-4-9-2-1-5 9-2 7-2 14-2z" fill="#6F4B32"/>
<path transform="translate(326,1123)" d="m0 0 4 1 8 4 4 6 5 4 10 6 23 7 22 4 9 1 2 1 16 1 2 1h36l1-1 10-1 9-6 3-5 1-5-2-1 15-4 5-2h3l-2 7-6 8-4 7-10 13-8 8-8 6-6-1-7-4-5-2-10-2-35-4-16-3-22-1-10 1-7 2-5-5-1-3-5-2-1-3-3-1-2-9h-2l-4-8-7-12z" fill="#0D0907"/>
<path transform="translate(297,820)" d="m0 0h43l31 3 6 2 8 9 4 6 3 2-2-9-1-5 5 1 5 6v2l3 1 2 11-1 3h-14l-21-2-31-5-4-2-6-1-26-1h-16l-10 2-12 6-6 5-1-3 7-14 9-8 14-7z" fill="#4B301A"/>
<path transform="translate(318,1247)" d="m0 0 3 2v2l4 1 14 7 29 12v2l11 2 16 3 27 2h18l-3 3-7 3-5 4-6 3-4 4-8 3-14 2h-10l-9-2-8-3v-2l-10-1-5 5-3 6-8-1-6-8-4-10-4-18-4-12v-2l-3 1-8 13-10 18-3 4-3 1h-13l-2-4-4-4 7 2 3 2h8l5-4 10-18 5-10 3-5z" fill="#C8A287"/>
<path transform="translate(160,1140)" d="m0 0 6 1 22 10 19 10 35 18 10 5 6 2 7 6 8 11 9 11 3 5 3 4v2l-8-2-11-6-1-2-8-3-19-9-19-10-29-15-16-8-17-9z" fill="#704C33"/>
<path transform="translate(271,885)" d="m0 0h42l28 3 31 6 15 5 7 2v2l5 1v2l5 2 7 8 2 4v6l-7 3-9-3v-2l-7-2-3-3-12-2-12-5-14-7-9-3-11-2-12-1h-14l-17 3-8 1h-14l-9 1v-2l-2-1v-1h-5l-4 8-2 11v45h-1l-1-7v-42l3-12 3-5 7-7 8-4z" fill="#C7A188"/>
<path transform="translate(509,916)" d="m0 0h26l34 3 18 3 23 5 12 5 10 6 6 5-2 5-2 4-4 2-7-4-9-4-11-3-5-2-18-3-11-1-5-1-8-1h-43l-20 4-4 1-3-2-1-6-4 2-3 7-2 12v34l-2-4v-36l4-14 4-6 8-6 13-4z" fill="#C7A187"/>
<path transform="translate(511,880)" d="m0 0h3l-1 4-4 10 8-6 8-7 8-1h13l29 3 17 3 16 4 14 7 8 6 9 11 8 3v2l5 1 4 1v-9l2-3v14l-9-1-7-3-9-2-25-6-13-2-4-2h-18l-13-1h-57v-1l15-2 1-1h48l4 1v-2h-7l-5-1-15-1h-36l-14 1 7-11 6-7z" fill="#4A2F1A"/>
<path transform="translate(351,1298)" d="m0 0 7 2 16 9 8 4 14 4 15 2 18 3 16 1h16l6 3-1 3h-2v2l-11 6-14 11-4 2-1 3-7 4-5 1-13-6-13-8-7-6-7-5v-2l-5-2-8-7-8-6-7-7-4-10z" fill="#FDE0CB"/>
<path transform="translate(1268,727)" d="m0 0 2 3 14 5 18 6 23 10 21 11 11 7 16 8 30 14 23 11 11 7 5 10v21l-3 15-7 31-3 15-3 20-4 16-5 26-7 25-7 19-8 11-10 8-9 6-17 8-17 9-16 8-14 8-12 5-9 4-6 3-7 2-6 3h-2v2l-24 10-15 8-12 6-14 8-9 5-13 5-3-1 4-1v-2l33-16 32-16 35-17 28-13 30-15 24-11 15-8 11-9 7-8 5-13 6-24 5-33 6-25 9-38 4-19 3-27v-10l-5-5-28-16-22-12-10-5-11-5-21-10-30-15-23-12-19-7z" fill="#926B4B"/>
<path transform="translate(342,1126)" d="m0 0h25l15 1h13l6 3 5 4 12 1 10-2 3-2h23l18 1 1 1 32 2-1 2-13 3v6l-1-4-8 2-1 1-7 1h-8l-3-1-1 3-8 1-5-3v3h-30l-25-2-2-1-13-1-8-3-4-2-10-2-4-2v-2l-6-2-6-4z" fill="#FBC6B2"/>
<path transform="translate(432,566)" d="m0 0h41l19 2 14 4 20 6 18 7 22 12 16 11 22 18 14 12 13 13 3 6-5-1-10-9-5-3-7-8-11-10-13-9-9-6-5-3v-3l-5-1-12-7-31-14v-2l-11-1-7-1-12-3-27-1-16 1h-17l-14 2-16 3-18 3h-21l2-1-1-5-1-2 10-2 25-3 20-3 3-1z" fill="#2E190E"/>
<path transform="translate(681,971)" d="m0 0h8l11 4 7 7 4 8 1 8-3-1-3-3-7-1-11 7-8 7-5 7-7 16-4 12 1 5 5 6v8l2 6-3 7-7 11-3 3h-2l-1 3-8 7-4 2-2-4 1-3h2l1-10 6-18 2-3 4-20 4-15 4-14 1-2 1-13 4-8 5-2 3-16z" fill="#FCDFCA"/>
<path transform="translate(919,1238)" d="m0 0h2l4 4v2h3l4 5 16 7 6 3v2l10 2 4 2 2 2 10 4 7 5v2l10 3 10 4 6 3v2h2v2l4 1 12 6 5 3 8 4 5 2 5 3 16 8 10 4 9 5 5 2v2l2 1-1 1h-9l-12-2-32-16-10-6-7-3-22-11v-2l-7-1-22-11v-2l-6-1v-2l-5-1-36-18v-2l-5-2-3-4z" fill="#EEB012"/>
<path transform="translate(521,1249)" d="m0 0 1 2-7 17-3 12-1 10-1 11-7 20-5 5-17 3-17 2v-2l8-7 10-9 4-10 1-14v-16l-4-2 1-3 12-5 4-1v-2l16-8z" fill="#D9B8A4"/>
<path transform="translate(552,599)" d="m0 0 5 2 8 4 12 7 6 4 14 10 15 14 2 4h2l8 11 7 10 9 15-1 3-7-2-2-1v-2h-2v-2l-10-1-8-7-7-8-6-6v-2l-4-2-8-9-5-5-12-13-5-5-1-3-3-1v-2l-4-2-5-5 1-5z" fill="#452C17"/>
<path transform="translate(366,1068)" d="m0 0h2l3 5v2l3 1v2l7-3 5-2h7l2 1v2l4 1h7l8-1 4 2 8-2 12 4 2 4 5 1 4-2h10l12 5 7-2 3-1v6l-7 7-8 2h-12l-2-1h-13l-2-1-7 2h-12l-11-6-8-2-2-1h-13l-10-6-6-5-3-7z" fill="#F1A96D"/>
<path transform="translate(683,1008)" d="m0 0 3 2 3 5 5 7 3 10v13l-5 16-7 13-12 18h-2v2h-2v2l-3 1-3 3-11 2 1-5 4-5 5-4 10-15 2-5v-9l-6-10-3-4 1-8 7-17 6-9z" fill="#F1A96D"/>
<path transform="translate(1059,846)" d="m0 0 4 1 23 12 19 9 2 2-1 4-11 13-7 9h-2l-1 3-2 1h-7l-17-3-1-1v-29z" fill="#C7A085"/>
<path transform="translate(204,1076)" d="m0 0h3l-1 66-4 1-21-10-5-5v-45l1-1h13l9-3z" fill="#704C33"/>
<path transform="translate(477,987)" d="m0 0 4 3 3 10 6 14 7 8 3 1v2l9 2 19 5 25 3 21 4 19 1 12-3 8-5 7-8 4-1 1-3 1 4-7 11-8 8-10 5-6 2h-26l-24-2-28-6-16-5-9-6-4-5-6-10-5-16z" fill="#FAEBD9"/>
<path transform="translate(263,748)" d="m0 0h3l-1 7-3 15-1 23-1 11-6 18-2 7-7 23-3 12-31 1v-13l3-24 4-36h2l1-6 4 1v8l-2 9-2 20-2 8v22l6 2h5l6-15 5-12 2-7 2-5 2-8 3-14 3-17 1-12 2-4 2-7 4-6z" fill="#20150F"/>
<path transform="translate(421,618)" d="m0 0h40v1l-37 1-13 2-14 2-7 2-8 2v4h7l10 2 18 3 16 2v2h2v5l-2 1 1 4 6 3 12 3 6 3-4 1-27-6-44-7-21-5-10-4-9-5-2-4 5-3 7-1 21-2 38-5z" fill="#603D25"/>
<path transform="translate(190,941)" d="m0 0 5 2 3 9 2 13v15l-14 14-2 4 1 12 4 13 5 7 1 6-3 1-5-3-3-3v-2l-5-2-5-18-3-24v-19l4-11 5-8 7-5z" fill="#CAA286"/>
<path transform="translate(333,738)" d="m0 0h24l13 1 33 1 33 5 77 11 52 8 10 3 9 3 4 2v1l-19-1-22-3-39-4-15-3-36-6-42-5-13-3-17-3-16-2-24-2-12-2z" fill="#FBEAD9"/>
<path transform="translate(248,980)" d="m0 0 5 2 4 5v2l4 2 10 6 14 3 7 1 32 2 18 2 15 2 12-2 6-3 7-6 8-10 7-5-1 6-7 12-7 8-8 6-11 4-9 1h-14l-23-2-31-5-17-5-10-6-8-9-3-5z" fill="#FBECDB"/>
<path transform="translate(340,1131)" d="m0 0 9 1 4 2v2l17 4 5 3 4 1 13 1 2 1 25 2 30 1v-3l5 2 8-1 1-2h11l7-1 3-2h6v7l-7 6-5 3-10 1-1 1h-36l-2-1-16-1-2-1-22-3-23-6-13-5-10-7-3-3z" fill="#F8F4F2"/>
<path transform="translate(312,909)" d="m0 0h9l-4 4-10 8-4 8-3 12h-2v3h2l1 3v9h2l1 2v6h2l-1 3-6-2-15-10-12-11-6-6-1-5 1-3 8-6 15-8 11-4z" fill="#FCF9F7"/>
<path transform="translate(423,972)" d="m0 0h1l-1 9-7 16-8 12-8 11-12 11-5 4h-2v2l-16 8-13 2h-13l-18-3-25-6-17-6-5-3-5-2v-2h7l16 4 18 3 18 2h35l13-3 10-5 12-11 9-12 9-17 4-12z" fill="#FAECDB"/>
<path transform="translate(493,924)" d="m0 0 3 2-1 3 16-2 27-1 9 1 32 3 18 3 13 3h6l3-2 5 1 12 6 2 4-3 3-2 5-3 1-7-4-9-4-11-3-5-2-18-3-11-1-5-1-8-1h-43l-20 4-4 1-3-2-1-6-4 1 2-4 4-3z" fill="#D8B7A3"/>
<path transform="translate(521,907)" d="m0 0h19l15 1 7 1 4 1 1 3-1 2-31-2h-27v2l-14 3-9 5-4 4-2 6-4 14v36l2 11v5l-2-4-3-17v-8h-2l-1 3-4-4-3-6v-9l-2-10-2 11v37h-1l-1-10v-45l-2-1 1-4 8 4h4v-2h2l2-4 8-12h2v-2l12-6 11-2z" fill="#201510"/>
<path transform="translate(347,1160)" d="m0 0 3 1 3 5 5 2 5-2 18-1 14 1 22 4 29 3 12 3 7 3 8 4-1 2h-11l-18-1-9-1h-8l-3-1h-9l-19-2-5-2-16-2h-11l-10-5-6-7z" fill="#976B48"/>
<path transform="translate(699,992)" d="m0 0 7 1 3 2v2h4v19l-5 17-9 21-8 16-2-1 3-10 4-16v-11l-3-10-7-9-2-4-5 3-6 10-6 15-1 8 4 5-1 2-6-7 2-10 7-17 6-10 8-8 10-6z" fill="#FCC6B2"/>
<path transform="translate(458,1008)" d="m0 0 3 1 6 16 7 11 11 11 15 7 14 5 28 5 31 4 13 1v1l-15 3h-26l-28-2-21-4-6-4-3-3v-2h-2l-2-5h-2v-2l-4-2-5-5-6-9-7-16-1-3z" fill="#FBEDDD"/>
<path transform="translate(325,657)" d="m0 0h9l14 3 17 5 12 5 23 13 16 10 6 6-1 2-22-11-14-5-9-3-35-9-13-3-7-3-5-2 1-5z" fill="#613E26"/>
<path transform="translate(678,1110)" d="m0 0h1v8l-3 15-4 8-6 4-4 1h-12l-10-5-6-7-4-5 1-3 5-5 5-6 8 1 4 4 13 2 4-4 5-6z" fill="#FCDEC9"/>
<path transform="translate(360,1344)" d="m0 0 10 4 19 10 17 9 2 4-4 4-6 2-14-7-13-4-10-3-17 6-11 2-4-2 2-4 12-9 13-9z" fill="#D9B8A4"/>
<path transform="translate(318,1247)" d="m0 0 3 2v2l4 1 14 7 29 12-3 1-23-8-5-1 6 12 5 15 6 2 2 2-5 5-3 6-8-1-6-8-4-10-4-18-4-12v-2l-3 1-8 13-10 18-3 4-3 1h-13l-2-4-4-4 7 2 3 2h8l5-4 10-18 5-10 3-5z" fill="#D9B8A4"/>
<path transform="translate(428,677)" d="m0 0 10 1 16 5 25 9 17 9 9 7 1 4-4 4-5 1v-2l-7-1-3 9-7-4-7-8-16-15-10-8-16-8z" fill="#6E4A31"/>
<path transform="translate(343,587)" d="m0 0h7l-4 6-8 6-2 3-3 1-1 2h-3v2l-17 11-8 4-4 1v2l-11 7-7 5-7 1-2-2 1-4 13-13 4-5 15-10 14-8 20-8z" fill="#2B170D"/>
<path transform="translate(308,818)" d="m0 0h13l33 2 10 1v1h-11l-13-1h-43l-14 3-11 6-8 7-7 14v2l9-7 12-5 7-1h16l26 1 9 2v1h-10l-8-1h-36l-9 3h-4v2l-8 5-2 3h-2v3h-2v4h35l27 2 35 5 5 1v1h-9l-34-5-21-1-20 2-15 2-44 3h-6l1-4 3-3h6v-2h24l1-9 2-5 1 3-3 11 7-2 9-21 6-8 7-6 10-5 13-3z" fill="#C8A289"/>
<path transform="translate(1215,924)" d="m0 0 3 1-6 31-5 22-8 43-6 28-8 39-7 31-2 7-2-1 2-11 4-25 5-31 1-5 1-7 1-9 2-6 2-14 5-21 2-10 4-13 2-11 1-12 4-9 4-13z" fill="#916A4B"/>
<path transform="translate(359,814)" d="m0 0h8l16 5 4 2h11l8 5 6 12 1 4v8l-6 7-5 2h-18l-17-4-6-4 4-1 14 2 24 1v-7l-2-8-9-9h-2l3 10-1 4-6-5-6-9-4-4-11-3v-2l-11-1-2-2z" fill="#FDEDDC"/>
<path transform="translate(480,1344)" d="m0 0h5l11 9 16 10 8 6-1 4-11-1-14-5-16-8h-7l-10 3-20 9-15 8h-5l4-5 18-11 34-18z" fill="#D9B8A4"/>
<path transform="translate(171,1037)" d="m0 0 4 4 6 8 18 9 7 4 2 3-1 5-9 7h-18l-7-3-3-4-1-9v-11l1-11z" fill="#FDE0CB"/>
<path transform="translate(286,822)" d="m0 0 4 1-3 1v2l11-1 3-1h4l1 2h7l7 4-1 7h-3v2h2v2h-33l-10 2-12 6-6 5-1-3 7-14 9-8z" fill="#633F27"/>
<path transform="translate(542,964)" d="m0 0h26l8 1h7v2h12l5 2 12 3 7 4v3l-10-1-11-2-33-3h-38l-22 3-14 1 1-3 11-4 9-2 1-1 12-2z" fill="#21150F"/>
<path transform="translate(517,623)" d="m0 0 12 3h8l17 8 21 14-1 5-9 1h-9l-12-5-12-6-14-10-4-5v-4z" fill="#613E26"/>
<path transform="translate(602,687)" d="m0 0h8l10 4v2l4 2 1 3 3 1v2h2l2 4 4 7v2h2l2 7-1 5-7 1-6 2h-3l-4-5-5-10-7-10v-2l-3-1-2-4-2-8z" fill="#613E26"/>
<path transform="translate(210,856)" d="m0 0h1v9h7v1l-7 2-3 5 6-1 44-3 21-3 16-1 28 2 25 4 20 3 15 4 11 3v2l6 1 8 5-3 1-11-5-14-4-8-2-36-4-22-2-41-1-56 2-11 3-1 2 1-8 2-6h2z" fill="#896345"/>
<path transform="translate(186,905)" d="m0 0h14l3 2v16l3 21-2 8-4 2-2-10v-6l-3-1v-2h-3l-7-9-6-4v-2l-7-1-1-4 5-6z" fill="#FCDFCA"/>
<path transform="translate(619,896)" d="m0 0 9 5 11 13 8 3v2l5 1 4 1v-9l2-3v14l-9-1-7-3-9-2-25-6-13-2-4-2h-18l-13-1h-57v-1l15-2 1-1h48l4 1v-2h-7l-5-1-15-1v-1h18l11 1h15l9 2 4-2 1 3 21 4h4l-4-5-4-3z" fill="#785238"/>
<path transform="translate(692,840)" d="m0 0 3 1 3 8v8l-5 34-4 24-3 12-8-1-5-1v-2l5-3 2-11 1-5 2-6v-7l2-13 1-10 3-11 2-15z" fill="#1F140F"/>
<path transform="translate(486,1273)" d="m0 0h2v22l-2 12-5 8-7 5v-2l-31 1h-16l-23-3-17-4-8-3 1-2 9 2 6 2 13 2h18l21-1h22l9-3 1-7-1-3-2-1 1-5h2v-9l3-6h2z" fill="#FCC0B0"/>
<path transform="translate(1195,1038)" d="m0 0 1 2-2 12-1 13-2 10-2 13-3 21 1 5 14-6 10-4 28-14 13-5 8-2 5-2 3 1-32 15-16 8-23 12-18 8h-3l2-10 8-36 8-40z" fill="#15495A"/>
<path transform="translate(645,1338)" d="m0 0 3 3 10 18 5 10 7 19 5 17 2 14v6l-3 3-17 3-62 2-4 1h-18v-2h-4l-1 2-8-3 2-2 75-3 21-1 13-3 1-1v-11l-4-20-7-19-8-16-8-15z" fill="#C8A288"/>
<path transform="translate(373,272)" d="m0 0h6l44 22 15 8 48 24 17 9 11 6 28 15 21 12-2 1-46-23-23-12-16-8-15-8-17-8-20-11-19-9-20-11-6-3-9 1-7 3-3-1z" fill="#FCC7B3"/>
<path transform="translate(170,1029)" d="m0 0h3l4 7 5 6 8 3 6 2 6-1 2-2 5 1 1 13 3 9 3 3v9h-1l-1-8-5 1-11 7-6 2h-10l-10-4-5-7-1-10zm1 8-1 2-1 15v13l3 6 5 3 3 1h18l10-8-1-6-5-4-12-5-7-4-5-4-6-9z" fill="#FBC6B2"/>
<path transform="translate(682,951)" d="m0 0 4 3v5h-2v2l-4 2-1 2-8 1-5 5-5 10-1 5h-2l-2 11-2 3 1-11-5-3-3-3-2-3-1-4 1-22 2-1 7 6 1 6 7-2 2-5 4-1h9l2-1v-4z" fill="#1E1510"/>
<path transform="translate(277,874)" d="m0 0h34l45 5 17 3 10 4 2 4 5 1 8 4 1 5-4-1-1-2-5-1-19-7-7-2-31-5-22-2-35-1-2-4z" fill="#1B120E"/>
<path transform="translate(184,944)" d="m0 0 2 1-1 1 3 2 1 1 2 1-2 2 1 2-6 4-2 6-1 11 1 8-1 5h-3v3h2l1 5-3 1-1 9-1 2 2 1 1 9 3 3 4 2v5l2 2 1 4 4-1 1-3 1 6-3 1-5-3-3-3v-2l-5-2-5-18-3-24v-19l4-11 5-8z" fill="#F1A96D"/>
<path transform="translate(362,923)" d="m0 0 5 2 4 4v2h2l8 14 3 8 1 4v8l-12 6h-3v-2h-10l1-6 3-4 4-13v-7l-4-10z" fill="#FAF8F6"/>
<path transform="translate(160,1140)" d="m0 0 6 1 22 10 19 10 35 18 10 5 6 2 7 6 8 11 9 11 3 5-1 2-3-3v-2l-4-2-9-11-3-7-8-6-6-2-18-10-16-8-17-9-17-8-16-8-5-1 1 12 2 4 12 7 16 8 14 8 32 16 13 7-3 1-33-17-19-10-36-18-1-1z" fill="#A06234"/>
<path transform="translate(639,1402)" d="m0 0 3 4 2 12 2 3h8l5-1 2-4 2-2 8 1 1-5h1v11l-4 2-11 3-96 4-3 1-2-1v-3l6-1 26-1 12-1 29-1 5-3z" fill="#DEDBDC"/>
<path transform="translate(312,933)" d="m0 0h2l2 7 1 5 4 8 7 4 4 1h12l10-3v3l-8 5-6 1h-10v3l13 2v2l7 1v1h-22l-14-3 1-2-3-10-3-6-1-10 2-6z" fill="#2D1C11"/>
<path transform="translate(316,904)" d="m0 0h7l1 3h14l1 1 10 2 14 7 8 7 8 11 6 11 1 9h-2l-5-12-6-10v-2h-2l-4-5-5-2-2-4-10-6-12-3-1-2h-13l-3 1h-9l-19 5-19 10-10 8h-2l1-5 8-8 11-7 5-3 18-5z" fill="#29180F"/>
<path transform="translate(606,153)" d="m0 0 1 2-13 7-1 4 22 12 20 11 40 21 10 6 16 8 21 11 19 10 12 7 16 8 3 3-4-1-36-18-16-9-19-9-19-10-15-8-22-12-25-13-12-6-10-6-6-3-1-5z" fill="#FCC7B3"/>
<path transform="translate(346,903)" d="m0 0h6l9 3h9l16 4 9 3v-2l5-3 5 1 6 7 2 4v6l-7 3-9-3v-2l-7-2-3-3-12-2-12-5-14-7z" fill="#D8B7A2"/>
<path transform="translate(268,889)" d="m0 0h9l2 6h14l10 1 25 2v1h-25l-17 3-8 1h-14l-9 1v-2l-2-1v-1h-5l-4 8-2 11v45h-1l-1-7v-42l3-12 3-5 3-3 14-5z" fill="#D7B5A0"/>
<path transform="translate(574,169)" d="m0 0 2 1-15 8-23 11-18 10-9 4-11 6-19 10-16 8-15 8-12 6-28 16-5 4-14 7-12 2 4-3 26-14 28-15 27-14 22-12 56-28 23-11z" fill="#FDE1CC"/>
<path transform="translate(508,898)" d="m0 0h36l15 1 12 2v2h-52l-3 1-20 3-14 5-5 2h-3l-1-2-4 2-4-1 5-3 9-6 9-4 6-1z" fill="#C8A288"/>
<path transform="translate(366,1068)" d="m0 0h2l3 5v2l3 1v2l7-3 5-2h7l2 1v2l4 1 7 8 6 7v2l-11-1-4-2h-13l-10-6-6-5-3-7z" fill="#C08653"/>
<path transform="translate(238,691)" d="m0 0 4 4 4 25v7l-4 2-2-4-3-1-4 9-4 2-1 4h-2l-1 14-2 11h-1l1-12 2-18 2-10 2-13 4-12h2l2-6z" fill="#4D311A"/>
<path transform="translate(270,634)" d="m0 0 2 2-2 5-1 4-6 16-3 10-3 12 1 21-5 1-3-6-1-6v-14l-2-1 2-2 3-13 7-14 9-13z" fill="#472D18"/>
<path transform="translate(389,828)" d="m0 0 5 1 5 6v2l3 1 2 11-1 3h-14l-8-1-1-1-14-2v-2l-4-1h-7l-6-2-1-3 6-1 3 1v2h2v2h2l1-2 5-1 8-1 3 1 7-4 7 5-2-9z" fill="#352012"/>
<path transform="translate(414,921)" d="m0 0 2 1v3h2l2 4-1 4 9 3-1 3h2v9l-2 8-3-1v-5l-3 1-6 14-3 1-1 3h-6l-2 1 3-11 5-16 2-10h2z" fill="#221812"/>
<path transform="translate(396,678)" d="m0 0 6 1 6 2 7 1v2l10 2 10 1 8 3 7 3 5 3v2l5 2 10 10-2 1-5-3-13-5-5-3-16-6-7-2h-3v2l-5-1-14-9-5-3z" fill="#2F1C10"/>
<path transform="translate(1456,422)" d="m0 0h14l8 3 5 5 2 4v5l-4-5-9-7-7-2-10 1-16 8-15 8-19 9-36 19-19 9-15 8-17 8-3 2-3-1 10-6 16-8 21-11 19-9 9-5 10-6 16-8 37-19z" fill="#C08551"/>
<path transform="translate(485,934)" d="m0 0 1 4 4 1 12-3 11-2h43l11 1 5 1 13 2 17 3 8 3 9 3 12 6 3-1-2 4-9-3-6-3-6-2-3-2-10-2-19-3-17-2h-7l-7-1h-31l-3 1-12 1-12 3-5-1-1-5z" fill="#FCC7B3"/>
<path transform="translate(486,1019)" d="m0 0 5 2 7 6 8 4 14 5 19 4 21 3 16 4v1h-19l-22-2-25-6-13-5-8-7-3-5z" fill="#F9F5F2"/>
<path transform="translate(347,1162)" d="m0 0h2l3 5 3 3h12l9 3 20 3 3-1 7 1 2 2 3-1 11-1 2 1h20l3 2v-1h13l3 2v2h7l3 2-1 1h-11l-18-1-9-1h-8l-3-1h-9l-19-2-5-2-16-2h-11l-10-5-6-7z" fill="#C7A086"/>
<path transform="translate(586,885)" d="m0 0 11 2 14 4 8 4 2 4 5 5 2 3-10-1-16-3-1-4-3 3-8-1-2-1h-15l-11-1 1-3 12 1 7-2 16-2v-2l-5-1-7-4z" fill="#633F27"/>
<path transform="translate(453,1083)" d="m0 0h6l12 5 7-2 3-1v6l-7 7-8 2h-12l-2-1h-13v-5h2l2-4 7-6z" fill="#C08551"/>
<path transform="translate(201,982)" d="m0 0h2l2 13v21l-1 10h-3l-4-4-4-7v-2h-2l-2-8v-8l7-11z" fill="#FDE0CB"/>
<path transform="translate(385,1347)" d="m0 0 8 2 12 6 11 7 7 1 12-6 11-6 4 1-1 3-18 11-8 6-11 8-7 6-4 1-1-3 4-5 9-7 2-5-7-4-16-8-7-5z" fill="#E9E8EC"/>
<path transform="translate(373,1180)" d="m0 0h17l5 1h28l3 1h13l14 2v2h8l-4 2-8 2h-23l-34-4-14-3-5-2z" fill="#FEF8F3"/>
<path transform="translate(402,602)" d="m0 0h26l3 2 7 2 1 2-8 2-10 1-10 2-16 1h-11v-5l4-4 8-2z" fill="#613E26"/>
<path transform="translate(408,582)" d="m0 0 9 1v4l-8 3-27 4h-9l-15-2v-4l6-3z" fill="#452C17"/>
<path transform="translate(329,916)" d="m0 0h12l2 2 7 2 2 1-1 5-7 2-6-1-5-1-8 4-6 7-2 8-2-1-1-11h-2l-1 3-1-2 6-11 5-5z" fill="#1E140F"/>
<path transform="translate(511,668)" d="m0 0 8 6 14 10 13 11 8 12-3 3-7-3-1-2-3-1v-2l-4-2-16-16-5-6v-2h-2l-3-5z" fill="#704C33"/>
<path transform="translate(481,697)" d="m0 0 1 2 5-1 2-1 10 6 6 5 1 4-4 4-5 1v-2l-7-1-3 9-7-4-7-8-2-3 4 2 8 1 1-4-4-3-1-5z" fill="#613E26"/>
<path transform="translate(521,907)" d="m0 0h19l15 1 7 1 4 1 1 3-1 2-31-2h-16l-23 1-5 1-6 4-3-1 4-5 10-4z" fill="#1B120E"/>
<path transform="translate(301,735)" d="m0 0h51l7 1v1h-45l-18 1-16 3-6 5-2 4h-2l-4 19-3 31-4 16-3 7-7 20-1-4 4-16 3-6 3-12 1-1 1-11 1-23 3-12 1-2h2l2-9 1-2 5-3 4-3 6-2z" fill="#BD9274"/>
<path transform="translate(315,821)" d="m0 0h28l5 2 20 1 4 2v5l-1 1h-7l-5-2-12-1-4 1-2-1h-15l-10-3-3-3z" fill="#2F1C10"/>
<path transform="translate(533,951)" d="m0 0h28l14 1 15 3 1 3-17-1-14-1h-15l-14 2-8 1-11 1-8-2 6-3 6-2z" fill="#FCC6B2"/>
<path transform="translate(578,607)" d="m0 0 4 1 22 18 14 12 13 13 3 6-5-1-10-9-5-3-7-8-11-10-13-9-5-5-1-3z" fill="#2D190E"/>
<path transform="translate(1316,1058)" d="m0 0m-2 1 5 1-5 4-16 7-7 3-6 3-7 2-6 3h-2v2l-24 10-15 8-12 6-14 8-9 5-13 5-3-1 4-1v-2l33-16 32-16 35-17 28-13z" fill="#8F6747"/>
<path transform="translate(342,660)" d="m0 0 21 4 3 2 1 4 8 3 3 3-2 2h-8l-21-6-11-3-1-3 3-3h3z" fill="#6F4B32"/>
<path transform="translate(653,707)" d="m0 0 4 1 7 9 4 12-1 7-4 7-6-2-3-11-1-13z" fill="#452C17"/>
<path transform="translate(532,611)" d="m0 0 10 1 6 1 3 1 5 6 5 3 8 8 6 9-5-1-20-12-9-6-8-5z" fill="#442B16"/>
<path transform="translate(359,966)" d="m0 0 1 3h10l-2 2-10 4-9 4-5 1h-17l-13-4-4-3-1-4 3 1 16 2h22l7-4z" fill="#FAEAD9"/>
<path transform="translate(1069,818)" d="m0 0 3 1h-2v2l-9 5-2 5-3 2v4l6 4 1 5 4 2 7 4-2 1-10-6-13-5-13-7 1-3 23-10z" fill="#194756"/>
<path transform="translate(204,1076)" d="m0 0h3l-1 66-4 1-21-10-5-5v-45l1-1h13l9-3zm-1 2-6 4-17 4-1 2-1 17v21l1 3 9 5 10 5 6 1 1-37v-25z" fill="#A06233"/>
<path transform="translate(258,996)" d="m0 0 6 1 9 5 10 3 35 5 13 2 2 3h-15l-20-2-16-3-15-5-9-6z" fill="#F5EEEA"/>
<path transform="translate(325,657)" d="m0 0h9l14 3 7 2-4 1-9-2-1 2-5 1v4l16 4 16 5 1 2-9-1-19-5-13-3-7-3-5-2 1-5z" fill="#613E26"/>
<path transform="translate(699,739)" d="m0 0 2 1 3 8 1 12v32h-1v-17h-3l-4 9-1 2-2-1 3-10 2-7v-6h-6l-7-4 1-8h5l4 3h2v-7l1-5z" fill="#492E18"/>
<path transform="translate(651,662)" d="m0 0 9 2 10 9 5 7 6 16 3 7 1 6v9l-4-3v-3h-2l-2-4 2-4-2-3 1-5-4-4-2-5-3-4-6-7-8-7-7-5z" fill="#301A0F"/>
<path transform="translate(174,925)" d="m0 0h6l8 6 5 7-4-2-8-3v-2h-5l-5 4-3 7-2 13 1 10v15h-2l-3-18v-23l2-7 6-2 2-4z" fill="#FBC0AF"/>
<path transform="translate(701,774)" d="m0 0 3 1v23l-3 26-1 14h-1l-1-11-2-9-3-9-2-3h2v-5l3-5 1-3 3-3 1-9-5 5 2-5z" fill="#352012"/>
<path transform="translate(530,882)" d="m0 0h25l13 1 1 1 10 1 8 4v2l-6 1-7-1-5-1h-10l-3-1-15-1-13-3-2-1z" fill="#2F1C10"/>
<path transform="translate(988,718)" d="m0 0 3 1-3 3-29 14-32 14-24 10-8 4-9 4-21 9-4-1 22-10 17-7 12-6 21-9 16-7h3v-2l13-5 6-4z" fill="#4E321C"/>
<path transform="translate(1306,754)" d="m0 0 9 3 9 6 16 8 10 4 16 8 12 5 10 6 19 10 14 7 10 7 2 3v5l-2-4-4-4-24-13-19-10-16-8-12-5-16-8-21-10-9-6-4-2z" fill="#017796"/>
<path transform="translate(278,882)" d="m0 0h18l34 3 32 5 21 6 7 3-3 1-15-5-31-6-28-3h-42l-12 3-8 5-7 6 2-4 9-8 13-5z" fill="#866043"/>
<path transform="translate(673,1411)" d="m0 0h1l1 12-4 3-18 3-21 1-64 1-6 1-2-2 2-1 75-3 21-1 13-3 1-1z" fill="#D9B8A4"/>
<path transform="translate(269,831)" d="m0 0 2 1-4 4 12-1 3 2 6 1 30 2v1h-33l-10 2-12 6-6 5-1-3 7-14z" fill="#976D4B"/>
<path transform="translate(1457,458)" d="m0 0 7 1-1 4-3 2v-2l-3-1-3 2-11 2-12 5-16 7-16 8-25 12-30 15-3-1 19-10 46-22 16-8 24-10z" fill="#704C33"/>
<path transform="translate(503,1260)" d="m0 0h2l-1 7-3 4-4 16-2 3h-4l-1-17-3-5z" fill="#C8A288"/>
<path transform="translate(378,1186)" d="m0 0h10l2 1 35 3 24 1 1-1h5l-2 5-8 1-8-2h-14l-4 1h-9v-2l-16-2-5-1-8-1z" fill="#EDBBA9"/>
<path transform="translate(401,1142)" d="m0 0 6 2h9l1-1h9l4 1 2-1h7l9 2v4h-29l-25-2-1-4z" fill="#C8A288"/>
<path transform="translate(584,1168)" d="m0 0 3 1-2 7-3 5h-2l-2 5-5 5-2 3h-2v2l-4 1-2 5-4 3-2 4h-3v2h-2l-1-4h2v-2l5-3 2-4 3-5 5-5h2v-2h2l1-5 8-11z" fill="#FCC7B3"/>
<path transform="translate(508,914)" d="m0 0h37l29 4 23 5v1l-10-1-18-3-34-3h-26l-13 3-9 4-7 5 2-4 6-5 9-4z" fill="#845E42"/>
<path transform="translate(1233,850)" d="m0 0 1 4-3 16-1 1-2 13-2 10-3 11-2 12h-1l-2-15 4-2-2-5v-10l3-9 4-6 2-1v-14l1-3z" fill="#034E67"/>
<path transform="translate(236,1302)" d="m0 0h8v2l-9 6-7 4h-2l-2 4-10 7-5 3h-4l1-4 10-9 9-6 3-3z" fill="#FDFDFD"/>
<path transform="translate(493,899)" d="m0 0 5 1-3 2-9 2v2l6-1 9-3 18-1-1 3-22 3-14 5-5 2h-3l-1-2-4 2-4-1 5-3 9-6 9-4z" fill="#C8A288"/>
<path transform="translate(558,1217)" d="m0 0v3l-12 11-10 8-11 8-2 4-2-1-7 4-8 1 2-4 3-3h2l2-4 2-1h10v-2h2l2-4 7-4 9-7z" fill="#FBC6B2"/>
<path transform="translate(564,964)" d="m0 0 12 1h7v2h12l5 2 12 3 7 4v3l-10-1-11-2-12-1v-1h6l-2-4-7-1-1-1h-7l-11-3z" fill="#2F1B10"/>
<path transform="translate(347,1160)" d="m0 0 3 1 3 5 5 2 5-2 18-1 14 1 5 1v1h-14l3 4 3 2-13-1-9-1-7-1h-8l-1-3-4-2-1-4h-2z" fill="#886042"/>
<path transform="translate(497,1136)" d="m0 0h7l-4 2-9 2v6l-1-4-8 2-1 1-7 1h-8l-3-1-1 3h-7v-2h-3v-2l6-3h7l6-2h7l7-2h9z" fill="#C8A287"/>
<path transform="translate(544,898)" d="m0 0h18l11 1 1 1 23 3 2 2h-74l-7 1h-15v-1l15-2 1-1h48l4 1v-2h-7l-5-1-15-1z" fill="#8E6849"/>
<path transform="translate(695,996)" d="m0 0h7l3 1v2l3 1 2 5v12l-1 7-4 5-1-5 1-7-2-4-2-6-5-7v-2l-5 3h-2l1-3z" fill="#FCC0B0"/>
<path transform="translate(236,912)" d="m0 0h2l-1 31h-1v-13l-2 1-3 10-1 9-2 12v19l-2-2v-22l1-15 4-20z" fill="#1D130E"/>
<path transform="translate(434,562)" d="m0 0h33l20 5v1l-14-1h-53l3-3z" fill="#B9804E"/>
<path transform="translate(542,964)" d="m0 0 2 1-1 1-15 1-4 4 3 1v1l-22 3-14 1 1-3 11-4 9-2 1-1 12-2z" fill="#4E3321"/>
<path transform="translate(277,826)" d="m0 0h2l-2 4 15 1 8 3 1 5h-13l-7-2-5-1-10 1 6-8z" fill="#714C33"/>
<path transform="translate(685,722)" d="m0 0 3 2 3 5 5 5 3 4v5l-3 3-4-1-4-5-3-1-4-15z" fill="#2C170E"/>
<path transform="translate(428,1285)" d="m0 0 2 2-11 6-4 4-8 3-14 2h-10l-9-2-8-3v-2h7l15 2h7l6 1 8-1 6-4v-3l7-3z" fill="#F2AA6D"/>
<path transform="translate(456,1084)" d="m0 0 5 2 3 2v7l-3 3-20-1 3-5 5-2 1-4z" fill="#A16233"/>
<path transform="translate(606,1135)" d="m0 0h2l1 4-3 5-2 3-3 11-4 5-5 4-4 1-2-2 6-6v-7l5-6 5-3h2v-7z" fill="#FCC7B3"/>
<path transform="translate(417,1068)" d="m0 0 5 1 13 2 16 2 5 2h9l8 2 6 3-1 2-12-2-3-1-10 1-4-4h-12v-2l-4 1-14-4h-5l-1-2z" fill="#FCC0B0"/>
<path transform="translate(390,878)" d="m0 0 8 1 10 6v2l6 1v2l5 2 5 4v2l4 2 7 6v1h-9l-12-13-3-3-11-6-6-2v-2l-4-1z" fill="#F9EAD9"/>
<path transform="translate(233,1176)" d="m0 0 5 1 14 7 6 2 7 6 8 11 9 11 3 5-1 2-3-3v-2l-4-2-9-11-3-7-8-6-6-2-18-10z" fill="#976742"/>
<path transform="translate(386,1168)" d="m0 0h14l8 4v3l2-2 6 2 2 1-4 2h-5l-2 1-9-3-3 1-19-3 3-2 10 1-3-3z" fill="#9E714C"/>
<path transform="translate(204,897)" d="m0 0h2l2 5h7l5 6 2 7 1 9 1 30 1 17-2-2-1-7-2-45-4-9-5 2-3 1-4-8z" fill="#916849"/>
<path transform="translate(318,1247)" d="m0 0 2 1-2 6-8 16-9 16-3 4-3 1h-13l-2-4-4-4 7 2 3 2h8l5-4 10-18 5-10 3-5z" fill="#CEAA92"/>
<path transform="translate(427,1177)" d="m0 0h17l3 2v-1h13l3 2v2h7l3 2-1 1h-11l-18-1v-2l-7-2-4 2v-2l-5-2z" fill="#BF8758"/>
<path transform="translate(367,914)" d="m0 0 7 1 6 2 7 1 5 4 5 2v2l10 2 5-1-1 2-13 2-5-2-3-2v-2l-12-2-6-4z" fill="#FCC6B2"/>
<path transform="translate(203,905)" d="m0 0 3 1 3 4 5-3 4 2 3 8v11h-1l-1-7-1-1-9 1-3-1-1-2z" fill="#C8A288"/>
<path transform="translate(666,970)" d="m0 0h22v1l-9 1-1 5-5 7h-2l-3-6-4 1-3 8-4 4 1-5h2l1-7 4-8z" fill="#C09A80"/>
<path transform="translate(426,907)" d="m0 0 21 2 18 3-4 2-3 2h-12l-4-1-10-1z" fill="#CDA991"/>
<path transform="translate(389,828)" d="m0 0 5 1 5 6v2l3 1 2 11-1 3h-14v-1l11-1-6-6h-3l1-5z" fill="#755137"/>
<path transform="translate(316,948)" d="m0 0 4 2 1 3 7 4 4 1h12l10-3v3l-8 5-6 1h-8l-7-3-5-4-4-6z" fill="#2C261E"/>
<path transform="translate(287,910)" d="m0 0h7l-2 3-5 3-4 4-12 7-7 6h-2l1-5 8-8 11-7z" fill="#321D11"/>
<path transform="translate(549,691)" d="m0 0 6 2 8 6 8 8 4 8-3 1-10-9-1-3-5-2v-2h-2l-5-7z" fill="#2A160D"/>
<path transform="translate(568,1430)" d="m0 0h62l-4 2-31 1-4 1h-18v-2h-4l-1 2-4-2z" fill="#C8A288"/>
<path transform="translate(355,1132)" d="m0 0 9 1 15 4 7 2 4 3v2l-14-1-13-4v-2l-6-2z" fill="#C8A288"/>
<path transform="translate(1382,1025)" d="m0 0v3l-14 8-32 16-15 8h-5l4-4 22-11 24-11 15-8z" fill="#946C4B"/>
<path transform="translate(473,911)" d="m0 0 2 1-1 2 8-3 4 1-13 6-10 2-7-1-17-2-4-3h9l2 1h12l3-2h8z" fill="#8A6446"/>
<path transform="translate(539,1278)" d="m0 0 3 3 3 5 36 8 18 6 19 10 1 2-5-2-19-9-16-5-19-3-9-1-8-4-4-8z" fill="#CEAA93"/>
<path transform="translate(649,1336)" d="m0 0 3 4 14 24 5 11 2 6 1 8h-2l-6-17-6-10-9-17z" fill="#C8A288"/>
<path transform="translate(387,1076)" d="m0 0 9 1 3 3 5 6v4h-5l-7-5-4 1-2-4-2-1 1-4z" fill="#9A5F33"/>
<path transform="translate(417,1176)" d="m0 0h5l7 2 3 2 4-1 7 3-4 1h-13l-3-1h-9l-19-2 2-2h11l3-1z" fill="#CFA890"/>
<path transform="translate(434,932)" d="m0 0h11l9 3 2 1-1 7-5-3-2-4h-8l-5 5-3 5h-2v-9z" fill="#F8E8D6"/>
<path transform="translate(316,904)" d="m0 0h7v1l-9 2v2l-9 3-12 3-7 3 2-4 5-3-2-2 14-4z" fill="#62422A"/>
<path transform="translate(366,1068)" d="m0 0h2l3 5v2l3 1v2l7-3 5-2h7l2 2h-8l-7 4h-2l4 8 2 3-5-2-6-3-7-8-1-7z" fill="#CBA080"/>
<path transform="translate(699,992)" d="m0 0 7 1 3 2v2h4v19l-2 8h-2v-19l-2-5-2-1v-2h-12l4-4z" fill="#FBC6B2"/>
<path transform="translate(511,880)" d="m0 0h3l-1 4-4 10 2 1-12 3 1 2h-6l7-11 6-7z" fill="#724D32"/>
<path transform="translate(350,960)" d="m0 0 2 1-3 5-3 1 10 2-3 3h-10l-1-2-13-2-1-4 4-1h8l8-2z" fill="#20150F"/>
<path transform="translate(528,966)" d="m0 0h15l2 3 18 2v1h-37l-2-1 2-4z" fill="#372013"/>
<path transform="translate(347,933)" d="m0 0h7l4 4v5l-4 4h-6l-4-5 1-5z" fill="#F4EDE7"/>
<path transform="translate(249,899)" d="m0 0 5 1 1 4 9-2h18l8-2h5l-4 2-21 5-12 1-7-2z" fill="#FCC6B2"/>
<path transform="translate(349,824)" d="m0 0h19l4 2v5l-1 1h-7l-5-2-9-1v-2l-3-1z" fill="#28160E"/>
<path transform="translate(170,916)" d="m0 0 5 3 4 1v2l4 2 5 5v3l-8-6h-6l-7 6h-3l3-10z" fill="#FCC7B3"/>
<path transform="translate(301,735)" d="m0 0h51l7 1v1h-45l-18 1-16 3-6 5-3 4 1-5 7-6 6-2z" fill="#C59F85"/>
<path transform="translate(342,1126)" d="m0 0h25l14 1-1 2h-26l5 2-3 2 7 4v2l-6-1-4-2v-2l-6-2-6-4z" fill="#FBC8B4"/>
<path transform="translate(520,611)" d="m0 0 1 2 10 3 16 9 8 4 3 5-5-1-15-8-11-6-3-2v-2l-5-2z" fill="#2B180E"/>
<path transform="translate(988,718)" d="m0 0 3 1-3 3-29 14-18 8h-2l1-3 9-4h3v-2l13-5 6-4z" fill="#50341D"/>
<path transform="translate(500,899)" d="m0 0h39l-4 2h-14l-20 2-12 4-4-1 1-3 12-3z" fill="#D8B9A6"/>
<path transform="translate(645,1338)" d="m0 0 3 3 10 18 5 10 7 19 5 17v7l-3-2-4-20-7-19-8-16-8-15z" fill="#CCA890"/>
<path transform="translate(478,929)" d="m0 0h2l-1 4-4 14v36l2 11v5l-2-4-3-17v-34l3-10z" fill="#342A20"/>
<path transform="translate(453,1184)" d="m0 0h8l4 2-3 2-12 3-1 1-24-1-35-3-3-3 12 1 27 3h23l8-2-4-1z" fill="#FCDBC7"/>
<path transform="translate(496,909)" d="m0 0h25l-4 3h-7l-1 1-13 1-5 1-6 4-3-1 4-5z" fill="#0A0706"/>
<path transform="translate(219,877)" d="m0 0h7l3 5-1 5h-14v-6z" fill="#BC977D"/>
<path transform="translate(181,1358)" d="m0 0h1l-1 7-7 19-7 29-2 1 1-12 6-22 8-20z" fill="#DEDCDE"/>
<path transform="translate(285,840)" d="m0 0h16l26 1 9 2v1h-10l-8-1h-36l-9 3h-4v2l-5 2 2-4 12-5z" fill="#D9B19A"/>
<path transform="translate(649,710)" d="m0 0h2l1 2v7h2v15h-2l-3-5-1-4-2-3 1-2h-2l-1-4h2l1-5z" fill="#2A160D"/>
<path transform="translate(400,684)" d="m0 0 5 2 12 8 5 5-1 2-22-11-10-4v-1l7 1 5 1z" fill="#613E26"/>
<path transform="translate(1303,557)" d="m0 0 2 1-5 4-8 4-12 7-10 5-3 1v-11l2 3 4 1 15-8 11-5z" fill="#472D18"/>
<path transform="translate(679,972)" d="m0 0h1v8l-3 9-6 2-3-2-1-9-5 4 1-5 2-2 4 1 2 3v3l5-5z" fill="#F7C4B0"/>
<path transform="translate(188,1352)" d="m0 0 2 1-2 8-8 16-3 5h-2l2-9 7-16z" fill="#fff"/>
<path transform="translate(181,1169)" d="m0 0 32 17 32 16 7 4-3 1-33-17-19-10-16-8z" fill="#9D6438"/>
<path transform="translate(623,685)" d="m0 0 4 2v2h2l6 8 6 7 1 8h-3l-7-11-8-11z" fill="#2B170D"/>
<path transform="translate(677,1092)" d="m0 0h2v4h-2l-2 5-4 6-5 1v2l-7 2-14-4-1-4 2-1 3 3 6 1h9l9-8z" fill="#FCC0B0"/>
<path transform="translate(265,931)" d="m0 0 1 4 3 5 11 11 10 7 12 8-3 1-9-5-11-8-13-13-4-6v-2z" fill="#CAA388"/>
<path transform="translate(378,1186)" d="m0 0h10l2 1 24 2 5 3v1l-9 1-16-3-5-1-8-1z" fill="#D4B29C"/>
<path transform="translate(479,1085)" d="m0 0h2v6l-7 7-8 2-2-2 6-2 1-2h-3l-3-8 8 2z" fill="#EDA86F"/>
<path transform="translate(666,939)" d="m0 0h8l2 1v6l-1 2-3 1h-8l-2-1 2-7h2z" fill="#E3DDDD"/>
<path transform="translate(413,1157)" d="m0 0h65v1l-10 1-1 1h-36l-2-1-16-1z" fill="#C3AD9E"/>
<path transform="translate(1192,758)" d="m0 0 2 1-19 10-16 8-23 11h-2v2h-5l4-3 48-24z" fill="#2E2922"/>
<path transform="translate(270,745)" d="m0 0h2l-3 11-3 13h-2v8l-1 1-1 16-1 5h-1l1-29 3-12 1-2h2l2-9z" fill="#A47A5B"/>
<path transform="translate(565,883)" d="m0 0 14 2 8 4v2l-6 1-7-1-5-1h-10v-3h7z" fill="#2F1C10"/>
<path transform="translate(366,920)" d="m0 0 5 4 8 11 6 11 1 9h-2l-5-12-6-10v-2h-2l-5-7z" fill="#744D31"/>
<path transform="translate(217,1085)" d="m0 0 2 3 4 10 2 2 3 12 1 8 2 2 2 12-2-2-9-25-5-18z" fill="#FCC7B3"/>
<path transform="translate(168,1071)" d="m0 0 5 2 4 2 3 1h18l4-2-2 4-8 3h-10l-10-4z" fill="#F4C3AF"/>
<path transform="translate(1316,1058)" d="m0 0m-2 1 5 1-5 4-16 7-7 3-6 3-4-1 16-9z" fill="#AB784E"/>
<path transform="translate(383,676)" d="m0 0 8 2 9 5 3 5h-6l-3-2-7-2-5-2z" fill="#6E4A31"/>
<path transform="translate(529,878)" d="m0 0h14l36 4 7 2v1l-11-1-29-3h-20z" fill="#B98A66"/>
<path transform="translate(371,1182)" d="m0 0 16 3v1l-7 1 1 1 11 1 8 2 10 2v1h-14l-4-2-13-2-9-5-1-2z" fill="#FCC0B0"/>
<path transform="translate(1217,1106)" d="m0 0m-2 1 3 1-5 4-17 9-13 5-3-1 4-1v-2z" fill="#996E4B"/>
<path transform="translate(251,841)" d="m0 0 4 1-1 7-3 10-3 4h-2v-7z" fill="#FFF2E1"/>
<path transform="translate(560,951)" d="m0 0 15 1 15 3 1 3-17-1-14-1-3-2h14l1-1h-12z" fill="#FCC7B3"/>
<path transform="translate(210,856)" d="m0 0h1v9h7v1l-7 2-3 5 6-1 18-1h11l-3 2-23 1-11 3-1 2 1-8 2-6h2z" fill="#845E40"/>
<path transform="translate(1115,796)" d="m0 0 2 1-5 2-1 3-14 6-13 7h-4v-2l30-15z" fill="#1E4049"/>
<path transform="translate(167,1070)" d="m0 0 4 5 8 4 3 1h10l9-4 10-6 4 1v6l-4-4-16 9-5 1h-7l-10-3-6-7z" fill="#C8A288"/>
<path transform="translate(262,1190)" d="m0 0 5 5 7 9 8 10 3 5-1 2-3-3v-2l-4-2-9-11-5-10z" fill="#AE784E"/>
<path transform="translate(525,904)" d="m0 0h49l18 1-1 2h-18l-13-1-35-1z" fill="#704C33"/>
<path transform="translate(200,1159)" d="m0 0 5 1 15 8 14 7-1 2-4-1-26-13-3-2z" fill="#A06233"/>
<path transform="translate(547,915)" d="m0 0 15 1 31 6 4 2-10-1-18-3-21-2z" fill="#896345"/>
<path transform="translate(513,878)" d="m0 0 4 1v3h7l-5 5-8 7h-2l1-6 4-8-5 1 1-2z" fill="#E6C5AC"/>
<path transform="translate(427,1177)" d="m0 0h17l4 3 4 1 7 2v1h-16v-2l-7-2-4 2v-2l-5-2z" fill="#C18B5D"/>
<path transform="translate(177,1018)" d="m0 0h2l3 3 4 2v5l2 2 1 4 4-1 1-3 1 6-3 1-5-3-3-3v-2l-5-2z" fill="#EEA96F"/>
<path transform="translate(574,633)" d="m0 0 8 6 5 3 5 8 3 4-1 3-6-6v-2l-4-2-7-9-3-3z" fill="#2A160D"/>
<path transform="translate(421,618)" d="m0 0h40v1l-37 1-13 2-14 2v-3z" fill="#613E26"/>
<path transform="translate(350,1168)" d="m0 0 8 5 5 2h11l16 2 4 2h-15l-6-2-5 1h-7l-8-3v-3h-2z" fill="#ECBEAB"/>
<path transform="translate(250,841)" d="m0 0 1 2-4 13-1 7 4-4 3-10 3-2-1 5-4 10-2 2h-6l1-8 3-13z" fill="#FCDAC5"/>
<path transform="translate(1182,1100)" d="m0 0h1v11l-2 5 2 2v3l3 1-7 3h-3l2-10z" fill="#28231C"/>
<path transform="translate(821,63)" d="m0 0 9 3 20 9 16 8-4 1-10-5-19-9-12-6z" fill="#FCCBB6"/>
<path transform="translate(396,1076)" d="m0 0 4 2 12 14v2l-11-1-2-2 3-2 2 1-2-5-4-5v-2h-2z" fill="#C08755"/>
<path transform="translate(269,831)" d="m0 0 2 1-4 4 12-1 3 2 6 1v1l-12 1-4-1-9 2 1-5z" fill="#9C6135"/>
<path transform="translate(318,1247)" d="m0 0 2 1-2 6-8 16-5 9-2-4 6-10 5-10 3-5z" fill="#CFAC94"/>
<path transform="translate(1184,908)" d="m0 0h11l6 5 4 1v3l3 1v2l-6-2-16-8z" fill="#2C2821"/>
<path transform="translate(250,714)" d="m0 0h3l2 13 3 4-1 6-4-1-3-15z" fill="#2A160D"/>
<path transform="translate(1295,1223)" d="m0 0 9 3 7 2v2l4 2v2h-8l-2-4-6-2-4-4z" fill="#D99408"/>
<path transform="translate(401,1093)" d="m0 0h6l11 6h12l8-2 3 3-10 2h-11l-11-4-8-4z" fill="#FCC6B2"/>
<path transform="translate(392,740)" d="m0 0h11l33 5v1h-18l-12-2-5-2-9-1z" fill="#DCB59C"/>
<path transform="translate(704,1036)" d="m0 0h1l-1 7-12 25-1 2-2-1 3-10 2-1 4-9z" fill="#FCDAC5"/>
<path transform="translate(480,931)" d="m0 0 1 3-3 7-2 12v34l-2-4v-36l4-14z" fill="#C7A188"/>
<path transform="translate(275,917)" d="m0 0 2 1-1 2 3 2-9 6-6 5h-2l1-5 8-8z" fill="#3F2718"/>
<path transform="translate(1214,744)" d="m0 0 4 1-9 5-17 9-16 7v-2l15-8 16-8h4v-2z" fill="#D7BCAD"/>
<path transform="translate(169,1037)" d="m0 0h2l-1 17v13l1 5-4-2-1-10z" fill="#F8C5B1"/>
<path transform="translate(389,828)" d="m0 0 5 1 3 3 1 5-2 7h-5l1-5z" fill="#6A462D"/>
<path transform="translate(322,821)" d="m0 0h21l6 3-1 2 2 2-4 2-5-1v-2l3-1-2-3h-6l-1 1h-7l-6-2z" fill="#301D10"/>
<path transform="translate(204,909)" d="m0 0h1l1 11 12-1 2 2-1 4v-2l-8 2-5-1-2-5z" fill="#D9B8A4"/>
<path transform="translate(660,1362)" d="m0 0 3 4 5 9 4 12 1 10-2-1-5-17-6-14z" fill="#976E4C"/>
<path transform="translate(174,1146)" d="m0 0 5 1 22 11-1 2-5-1-20-10z" fill="#9D6438"/>
<path transform="translate(444,1098)" d="m0 0h8l2 1h13l6-1-1 3-10 3-7-1-4-3-7-1z" fill="#FAC2A9"/>
<path transform="translate(204,1076)" d="m0 0h3l-1 49h-1l-1-24 1-23-4 1z" fill="#946948"/>
<path transform="translate(1239,818)" d="m0 0h1v8l-3 12-2 11-2-2-1-8 3-5 1-8z" fill="#024C65"/>
<path transform="translate(1338,1047)" d="m0 0 4 2-16 8-5 3h-5l4-4z" fill="#996F4C"/>
<path transform="translate(264,769)" d="m0 0h1l-1 23-2 12-2 7h-1v-7l2-10 1-16 1-1z" fill="#CFAB94"/>
<path transform="translate(436,923)" d="m0 0 4 1 6 3-2 4-11 1 2-8z" fill="#1B120E"/>
<path transform="translate(337,844)" d="m0 0h10l19 3 14 2 1 2-13-1-31-5z" fill="#B17C52"/>
<path transform="translate(204,1115)" d="m0 0h1l1 10v17l-4 1-8-4v-2l10 3z" fill="#A16233"/>
<path transform="translate(347,1160)" d="m0 0 3 1 3 5 5 2h13l1 3 3 1-2 1-6-2h-12l-1-3-4-2-1-4h-2z" fill="#996942"/>
<path transform="translate(416,1146)" d="m0 0h20l6 2v1h-23l-6-1z" fill="#8D6749"/>
<path transform="translate(627,1128)" d="m0 0 2 2-3 3-11 21-5 8-1-3 12-21 3-8z" fill="#AB6F41"/>
<path transform="translate(401,1142)" d="m0 0 10 3v3l-17-1-1-4z" fill="#D6B49F"/>
<path transform="translate(678,938)" d="m0 0h7l2 5v5l-6-1-4-8z" fill="#1B120E"/>
<path transform="translate(513,893)" d="m0 0 4 1 4 2-6 2-7 1h-11l2-2 12-3z" fill="#352D23"/>
<path transform="translate(680,962)" d="m0 0 2 1-1 4v2h-2v2l-12-1 1-3 3-2h8z" fill="#6C482F"/>
<path transform="translate(355,952)" d="m0 0h3l-1 4h-3l-10 3h-12v-1l12-3 4-2z" fill="#1D130E"/>
<path transform="translate(523,875)" d="m0 0 5 1-1 4-2 2-10 1 1-4z" fill="#FEEFDD"/>
<path transform="translate(478,929)" d="m0 0h2l-1 4-4 14-1 28h-1v-30l2-11z" fill="#845E41"/>
<path transform="translate(317,905)" d="m0 0h7v2h14l1 1 10 2-4 1-7-1-1-1h-13l-3 1-7-1v-2z" fill="#4D301B"/>
<path transform="translate(511,880)" d="m0 0h3l-1 4-5 8h-3l-1-2 1-3-2-1 6-5z" fill="#68442A"/>
<path transform="translate(431,1131)" d="m0 0h8l2 2-7 1-2 3-8 1-1 3h-6l2-1v-2l9-3 1-3z" fill="#FCC1B0"/>
<path transform="translate(387,826)" d="m0 0h5l5 4-1 2-4-3h-2l3 10-1 4-6-5 1-2 2 1z" fill="#D7B49B"/>
<path transform="translate(405,1171)" d="m0 0 3 2v2l2-2 6 2 2 1-4 2h-5l-2 1-9-3v-3l7 1z" fill="#C08551"/>
<path transform="translate(496,913)" d="m0 0h12v2l-14 3-6 3-2-1 4-5z" fill="#221A14"/>
<path transform="translate(351,1128)" d="m0 0h29v1l-11 3-15-2z" fill="#FCC0B0"/>
<path transform="translate(327,969)" d="m0 0h16v2l7 1v1h-22z" fill="#4A3726"/>
<path transform="translate(237,736)" d="m0 0h3l1 6-2 7-4-1 1-11z" fill="#2A160D"/>
<path transform="translate(368,1080)" d="m0 0 7 4v2l4 1 7 4v1h-6l-7-3-2-2v-3h-2z" fill="#F8C4B0"/>
<path transform="translate(643,981)" d="m0 0h1v7l-3 12-4 5h-2l-1 3-1-2 2-4 2-1z" fill="#221711"/>
<path transform="translate(666,939)" d="m0 0h8l2 1v6l-1 2-3 1h-8l-2-1 2-7h2zm2 1-3 3 1 4 5 1 2-1 2-6z" fill="#70A0A8"/>
<path transform="translate(450,1084)" d="m0 0m-1 1 1 2v4l-6 2-2 3h6v2l-9 1v-5h2l2-4z" fill="#C08857"/>
<path transform="translate(199,1079)" d="m0 0 2 1-4 3-4 1h-14l-1 10h-2v-11l1-1h13z" fill="#9D6F49"/>
<path transform="translate(665,977)" d="m0 0 4 1 2 3v3l4-3-1 4-4 4h-2l-1-9-5 4 1-5z" fill="#DAB8A4"/>
<path transform="translate(428,1285)" d="m0 0 2 2-11 6-4 4-3 1 2-4 1-4 7-3z" fill="#F0A96D"/>
<path transform="translate(642,973)" d="m0 0h1l-1 14-4 14-3 1 4-16z" fill="#563F2D"/>
<path transform="translate(988,718)" d="m0 0 3 1-3 3-15 7h-2l1-3z" fill="#4E321C"/>
<path transform="translate(1403 1e3)" d="m0 0 1 3-8 12-8 7-5 2v-2l9-7 7-8z" fill="#90694B"/>
<path transform="translate(487,694)" d="m0 0h6l8 4 2 3v3l-10-4-3-3z" fill="#2F1C10"/>
<path transform="translate(204,897)" d="m0 0h1l2 7 2 1 6-1 3 3-1 2-3-1-6 3-4-8z" fill="#956B4A"/>
<path transform="translate(205,897)" d="m0 0 2 4 4 1 5 1 4 5 2 7-1 4-4-12-2-2-7 1-3-4z" fill="#724E34"/>
<path transform="translate(607,774)" d="m0 0h7l8 3 14 4v2l3 1-6-1-26-8z" fill="#CBA48C"/>
<path transform="translate(571,766)" d="m0 0 10 1 18 3 6 2v1l-10-1-19-3-5-2z" fill="#C8A289"/>
<path transform="translate(1192,758)" d="m0 0 2 1-19 10-8 4-4-1 16-8z" fill="#42362A"/>
<path transform="translate(533,882)" d="m0 0h15l2 4-4 1-10-2-4-2z" fill="#2A160D"/>
<path transform="translate(294,736)" d="m0 0h5l-3 2-16 3-6 5-3 4 1-5 7-6 6-2z" fill="#CDA890"/>
<path transform="translate(343,821)" d="m0 0h10l18 2v1h-23l-5-2z" fill="#845733"/>
<path transform="translate(570,600)" d="m0 0 9 6-1 5 3 3-4-1-6-4 2-3-3-4z" fill="#331F12"/>
<path transform="translate(519,902)" d="m0 0h7l4 2-12 2h-15v-1l15-2z" fill="#8A6346"/>
<path transform="translate(554,883)" d="m0 0h11l2 4-4 1h-5l-4-1z" fill="#2A160D"/>
<path transform="translate(660,870)" d="m0 0h2l1 3-1 14-1 15h-1z" fill="#040303"/>
<path transform="translate(539,1278)" d="m0 0 3 3 3 5 13 3 1 2h-10l-6-3-4-8z" fill="#CBA68D"/>
<path transform="translate(387,1185)" d="m0 0 12 1 16 2-1 2-24-2z" fill="#FCD4C1"/>
<path transform="translate(373,1180)" d="m0 0h17l-2 4 2 1-12-2-5-2z" fill="#FFF2E1"/>
<path transform="translate(684,1077)" d="m0 0h3l-1 5-2 7-3 1-2 2-1-2z" fill="#FBC1AF"/>
<path transform="translate(533,951)" d="m0 0 18 1-2 2-5 1h-11l-4-2h4z" fill="#FCC0B0"/>
<path transform="translate(350,839)" d="m0 0 7 1v2h2v2h2l1-2v3h-7l-6-2-1-3z" fill="#2F1C10"/>
<path transform="translate(691,1061)" d="m0 0 1 3-2 5 1 2-3 6-6 1 2-4z" fill="#FBC5B0"/>
<path transform="translate(536,873)" d="m0 0 12 1v3h-13l-2-2z" fill="#FFF2E1"/>
<path transform="translate(1249,730)" d="m0 0h7l-4 2-15 4-4 2h-3v-2l14-5z" fill="#DAC2B4"/>
<path transform="translate(415,1190)" d="m0 0h10l3 3-4 1-5 1h-9l3-2 5-1z" fill="#F1BEAC"/>
<path transform="translate(455,1157)" d="m0 0h23v1l-10 1-1 1h-12z" fill="#D5C1B5"/>
<path transform="translate(1294,1066)" d="m0 0h5l-4 3-19 9-2-1 7-5 12-5z" fill="#164757"/>
<path transform="translate(937,742)" d="m0 0h2l-1 3-19 8-2-1 6-4 8-3z" fill="#4C301A"/>
<path transform="translate(308,685)" d="m0 0 12 3 1 3-6 1-2-1v-2l-3 1-3-1z" fill="#613E26"/>
<path transform="translate(176,1122)" d="m0 0 1 4h2v3l5 2 10 5v2l-6-2-10-5-2-3z" fill="#9D6338"/>
<path transform="translate(222,878)" d="m0 0 3 1-1 4-3 2h-5v-5z" fill="#E1DFE0"/>
<path transform="translate(181,1358)" d="m0 0h1l-1 7-5 14-2-2 1-5z" fill="#E1DFE2"/>
<path transform="translate(464,1185)" d="m0 0h7l-4 4-6 3-4-1-5-1v-1l10-2z" fill="#FCC2B1"/>
<path transform="translate(400,1168)" d="m0 0 11 1 16 2v1l-7 1h-9v-2l-11-2z" fill="#6A472E"/>
<path transform="translate(499,971)" d="m0 0 2 1-1 1 12 1v1l-21 2 1-3z" fill="#5E3D24"/>
<path transform="translate(429,943)" d="m0 0 2 3-1 10-4 8h-1l1-8z" fill="#F0D9C6"/>
<path transform="translate(497,916)" d="m0 0 4 1-16 8-5 4 2-4 6-5z" fill="#896346"/>
<path transform="translate(610,1124)" d="m0 0 3 1 1 4-4 4-3-1v-6z" fill="#FCC7B3"/>
<path transform="translate(564,964)" d="m0 0 12 1h7v2h12v1h-20l-11-3z" fill="#795338"/>
<path transform="translate(582,899)" d="m0 0h6l9 3v1h-10l-13-2v-1z" fill="#704C33"/>
<path transform="translate(701,774)" d="m0 0 3 1v9l-2 3-1-6-5 5 2-5z" fill="#2F1C10"/>
<path transform="translate(360,737)" d="m0 0h12l19 2v1h-21v-2h-10z" fill="#DEBBA4"/>
<path transform="translate(355,1126)" d="m0 0h12l14 1-1 2h-23l-6-1z" fill="#FCC7B3"/>
<path transform="translate(1233,850)" d="m0 0 1 4-3 16h-1l-1-15 1-3z" fill="#04556F"/>
<path transform="translate(474,724)" d="m0 0 6 2 3 6v2l-5-1-3-5z" fill="#1B120E"/>
<path transform="translate(1062,656)" d="m0 0h2v14l-2 4-1-12-3-2z" fill="#533620"/>
<path transform="translate(491,1052)" d="m0 0 6 1 11 4-1 2h-5l-10-5z" fill="#F7F3F0"/>
<path transform="translate(389,1141)" d="m0 0 8 1-4 1-1 3-13-1-7-2 4-1 12 1 2 1z" fill="#E2BFAB"/>
<path transform="translate(168,1071)" d="m0 0 5 2 8 4v3l-9-3z" fill="#F0C1AD"/>
<path transform="translate(379,1063)" d="m0 0h5l-1 8-7 2-1-2 3-2z" fill="#FCC0B0"/>
<path transform="translate(604,970)" d="m0 0 10 3 5 3v3h-6l1-4h-5l-1-3h-4z" fill="#563721"/>
<path transform="translate(387,882)" d="m0 0h7l7 3 7 4-3 1-11-5-7-2z" fill="#7C583D"/>
<path transform="translate(250,841)" d="m0 0 1 2-5 16-2 1 1-7 2-10z" fill="#EDC6AE"/>
<path transform="translate(366,825)" d="m0 0 6 1v5l-1 1h-7v-2l-2-1 5-1z" fill="#2C180E"/>
<path transform="translate(1303,557)" d="m0 0 2 1-5 4-8 4-5 2 2-4z" fill="#4D321C"/>
<path transform="translate(657,909)" d="m0 0 1 4v10l-9-1v-2l-4-1-1-2h3v2l5 1 4 1v-9z" fill="#926C50"/>
<path transform="translate(278,841)" d="m0 0h6l-2 2-9 3h-4v2l-5 2 2-4z" fill="#CDA991"/>
<path transform="translate(166,1161)" d="m0 0 14 7 1 3-6-2-10-5z" fill="#9F6336"/>
<path transform="translate(606,972)" d="m0 0h2l1 2 5 1 1 3-12-1-3-2 5-1z" fill="#331D11"/>
<path transform="translate(287,957)" d="m0 0 5 2 10 7-3 1-9-5-4-4z" fill="#CDA890"/>
<path transform="translate(217,867)" d="m0 0h6l-1 3-8 2h-4l2-4z" fill="#D9B8A4"/>
<path transform="translate(246,1184)" d="m0 0 11 3 5 3 2 5-7-5-6-2-5-3z" fill="#9F6336"/>
<path transform="translate(366,666)" d="m0 0 9 3 1 4-10-2z" fill="#623F27"/>
<path transform="translate(359,915)" d="m0 0 5 3 3 5v2l-6-1z" fill="#492F1C"/>
<path transform="translate(339,918)" d="m0 0h2l-1 3-7 4-5-1v-2l5-2z" fill="#2C190E"/>
<path transform="translate(287,910)" d="m0 0h7l-2 3-6 3v-3l-2-1zm-3 6h2l-1 3-3 1z" fill="#412A1A"/>
<path transform="translate(322,821)" d="m0 0h21v1l-7 1-1 1h-7l-6-2z" fill="#51341D"/>
<path transform="translate(971,726)" d="m0 0m-2 1h2v3l-12 6h-2l2-4 9-4z" fill="#52351F"/>
<path transform="translate(528,966)" d="m0 0h4l1 4-7 2-2-1 2-4z" fill="#1B120D"/>
<path transform="translate(1239,818)" d="m0 0h1v8l-3 8-2-4z" fill="#025069"/>
<path transform="translate(286,618)" d="m0 0 2 1-16 16v-3l2-3h2v-2l8-7z" fill="#392314"/>
<path transform="translate(318,1247)" d="m0 0 2 1-2 6-3 7-4 1 2-6 3-3z" fill="#C8A389"/>
<path transform="translate(1217,1106)" d="m0 0m-2 1 3 1-5 4-6 3h-2l2-4z" fill="#A0734D"/>
<path transform="translate(1182,1100)" d="m0 0h1v11l-4 4 1-9z" fill="#2B2822"/>
<path transform="translate(407,1093)" d="m0 0h6l4 4 11 2v1h-10l-11-6z" fill="#C8A288"/>
<path transform="translate(373,876)" d="m0 0 7 1 14 4v1h-7l-5-2-8-2z" fill="#987153"/>
<path transform="translate(1045,830)" d="m0 0 3 1-6 2v4l-6-2 1-3z" fill="#282C29"/>
<path transform="translate(1081,1333)" d="m0 0 13 1v2l11 1v1h-10l-4-1v-2h-8z" fill="#CF860F"/>
<path transform="translate(1196,1118)" d="m0 0 3 1-9 4-7 3-3-1 4-1v-2z" fill="#BA8150"/>
<path transform="translate(186,1029)" d="m0 0 2 1 1 4 4-1 1-3 1 6-3 1-5-3-3-4z" fill="#F2AA6D"/>
<path transform="translate(1158,891)" d="m0 0 5 1-1 3h2l1 3-6-2-4-2v-2z" fill="#2C2821"/>
<path transform="translate(318,841)" d="m0 0h9l9 2v1h-10l-8-1z" fill="#BD8E6A"/>
<path transform="translate(428,1193)" d="m0 0h9l1 2-6 3h-2v-2h-2z" fill="#FCC0B0"/>
<path transform="translate(427,1191)" d="m0 0h15v2l-5 1-12-1z" fill="#DEB9A5"/>
<path transform="translate(378,1186)" d="m0 0h10l4 3-3 1-8-1z" fill="#D9B8A4"/>
<path transform="translate(386,1168)" d="m0 0 8 1 1 4h-6l-3-3z" fill="#C3926A"/>
<path transform="translate(481,1071)" d="m0 0 5 1v10l-3-3-1-6-2-1z" fill="#FCC1B0"/>
<path transform="translate(245,681)" d="m0 0h3v11l-4-4z" fill="#2A160D"/>
<path transform="translate(973,1046)" d="m0 0 2 1-12 12v-3l6-7z" fill="#EDAF10"/>
<path transform="translate(312,930)" d="m0 0 5 1 1 3-2 3h-2v-4h-2l-1 3-1-2z" fill="#26150D"/>
<path transform="translate(366,920)" d="m0 0 5 4 3 5-3 2-5-7z" fill="#815739"/>
<path transform="translate(547,915)" d="m0 0 15 1-2 2h-12z" fill="#876144"/>
<path transform="translate(338,822)" d="m0 0 5 1 2 4h-7l-2-1z" fill="#2A160D"/>
<path transform="translate(562,1429)" d="m0 0h21v1l-15 1-6 1-2-2z" fill="#DAB9A5"/>
<path transform="translate(407,1069)" d="m0 0 4 2-4 1-7 1-3 1v-2l-5-1 3-1z" fill="#FCC0B0"/>
<path transform="translate(200,974)" d="m0 0h2v6h-2zm-1 6 1 4-4 4h-2l2-5z" fill="#FCC4B2"/>
<path transform="translate(670,966)" d="m0 0 4 1 5 4-12-1 1-3z" fill="#8C6647"/>
<path transform="translate(424,963)" d="m0 0h3l-1 7-4 4-1-2z" fill="#F2DFCC"/>
<path transform="translate(382,943)" d="m0 0 3 3 1 9h-2l-3-10z" fill="#8D6648"/>
<path transform="translate(270,745)" d="m0 0h2l-3 11-3 6-1-3 4-12z" fill="#B68D6F"/>
<path transform="translate(224,1308)" d="m0 0 2 1-8 6-3 2-3-1 10-7z" fill="#E6E5E9"/>
<path transform="translate(350,1168)" d="m0 0 8 5 3 2-1 2-7-2v-3h-2z" fill="#F8C3B0"/>
<path transform="translate(427,1171)" d="m0 0 11 2-6 3-6-2z" fill="#B58155"/>
<path transform="translate(622,1131)" d="m0 0 1 3-3 7h-2v-6z" fill="#F6C3AE"/>
<path transform="translate(386,1073)" d="m0 0h7l2 2h-8l-7 4h-5l3-2 4-3z" fill="#EFA96E"/>
<path transform="translate(325,923)" d="m0 0 5 1 3 2-5 2h-5v-4z" fill="#26140D"/>
<path transform="translate(457,912)" d="m0 0h8l-4 2-3 2h-12v-1l11-1z" fill="#C8A288"/>
<path transform="translate(1191,756)" d="m0 0h3v2l-18 8v-2z" fill="#D9B7A2"/>
<path transform="translate(383,573)" d="m0 0h8l-2 3-17-1v-1z" fill="#5B3A23"/>
<path transform="translate(412,1081)" d="m0 0 4 1 6 2v2h3v2l-5-1-6-3v-2z" fill="#C08551"/>
<path transform="translate(489,975)" d="m0 0 3 1h10v1l-8 2h-6z" fill="#C39779"/>
<path transform="translate(480,931)" d="m0 0 1 3-3 7-1 5h-2l1-7 3-7z" fill="#CDA991"/>
<path transform="translate(1127,790)" d="m0 0 2 1-1 2-8 4-3-1 3-3z" fill="#284248"/>
<path transform="translate(526,192)" d="m0 0m-2 1 2 1-3 3-6 3-3-1 8-5z" fill="#FDE3CE"/>
<path transform="translate(452,1175)" d="m0 0 6 1 7 3 3 3-3 1-5-4-8-3z" fill="#7F5536"/>
<path transform="translate(490,915)" d="m0 0 7 1-3 2-6 3-2-1z" fill="#221C16"/>
<path transform="translate(312,909)" d="m0 0h9l-4 4-8-2z" fill="#DFBFA7"/>
<path transform="translate(513,893)" d="m0 0 4 1 4 2-1 1h-9v-3z" fill="#301D10"/>
<path transform="translate(227,879)" d="m0 0 2 3-1 5h-10l4-2 5-1z" fill="#855F43"/>
<path transform="translate(390,1179)" d="m0 0 15 1-1 2h-13z" fill="#FDE6D2"/>
<path transform="translate(405,1170)" d="m0 0 6 1v2l6 1-2 2-5-2-2 2z" fill="#926B4C"/>
<path transform="translate(190,1154)" d="m0 0 5 1 6 3-1 2-5-1-5-3z" fill="#9E6336"/>
<path transform="translate(177,1082)" d="m0 0 4 1-2 1-1 10h-2v-11z" fill="#926B4C"/>
<path transform="translate(315,1033)" d="m0 0 13 1-3 3-10-2z" fill="#EBDED4"/>
<path transform="translate(265,931)" d="m0 0 1 4 3 5v3l-5-5-2-5z" fill="#DCBBA6"/>
<path transform="translate(484,568)" d="m0 0h8l6 2v1h-11z" fill="#5E3C23"/>
<path transform="translate(321,1246)" d="m0 0 4 1 1 3 2 1-4 1-3-1z" fill="#FDE0CB"/>
<path transform="translate(449,1146)" d="m0 0 5 2 3 2h-15v-1h7z" fill="#EEDFD8"/>
<path transform="translate(393,1143)" d="m0 0h6l1 4h-6z" fill="#B89277"/>
<path transform="translate(204,1076)" d="m0 0h3v10h-2v-8l-4 1z" fill="#9B6941"/>
<path transform="translate(317,961)" d="m0 0 6 2 1 2-7 1-1-4z" fill="#2C261E"/>
<path transform="translate(852,77)" d="m0 0 6 2 8 4-4 1-10-5z" fill="#FCCDB4"/>
</svg>
